<?xml version="1.0" encoding="utf-8"?>
<!-- Generator: Adobe Illustrator 22.1.0, SVG Export Plug-In . SVG Version: 6.00 Build 0)  -->
<svg version="1.1" id="Layer_1" xmlns="http://www.w3.org/2000/svg" xmlns:xlink="http://www.w3.org/1999/xlink" x="0px" y="0px"
	 viewBox="0 0 828 329" style="enable-background:new 0 0 828 329;" xml:space="preserve">
<style type="text/css">
	.st0{fill-rule:evenodd;clip-rule:evenodd;fill:#C3A252;}
	.st1{fill-rule:evenodd;clip-rule:evenodd;fill:none;}
	.st2{fill:#536B7F;}
	.st3{font-family:'Rubik-BlackItalic';}
	.st4{font-size:28px;}
</style>
<g id="Store">
	<path id="S_x5F__2_" class="st0" d="M446.3,159.4c0.1-0.1,0.1-0.3,0.2-0.4c0.4,0.1,0.6,0,0.9,0c10.9,0.1,21.7,0.2,32.5,0.4
		c10.9,0.1,21.6,0.2,32.5,0.3c10.6,0.1,21.4,0.3,32.5,0.4c5.3,0,10.8,0.1,16.3,0.1c2.8,0,5.6,0.2,8.1,0.2c2.6-0.1,5.1-1.4,6.9-3.2
		c1.9-2,3.2-5.3,4.7-8.5c1.5-3.2,3-6.5,4.4-9.4c1.4-3.1,2.7-6.2,4.3-9.5c0.7-1.4,1.3-3.2,1.7-4.9c0.4-1.8,0.5-3.2-0.4-4
		c-1.1-1-2.9-0.9-4.1-0.9c-9.6-0.1-19.3-0.2-28.5-0.4c-5.4-0.1-10.8,0-16.3-0.2c-2.7-0.1-6.2-0.9-8.6-2.6c-2.2-1.6-3.7-3.8-4.2-6.4
		c-1-5,0.7-11.7,3.3-18.5c1.3-3.4,2.8-6.6,4.2-9.7c4.4-9.4,8.8-19,13.1-28.3c2.9-6.2,6.1-11.9,9.5-16.8c7-9.8,14.9-16.6,25.4-17.7
		c2.6-0.3,5.3-0.2,8-0.1c24.5,0.4,48.9,0.4,73.3,0.9c2.7,0,5.4,0.1,8.1,0.1c13.6,0,27.1,0.2,40.7,0.4c21.7,0.3,43.4,0.5,65.1,0.7
		c0.1,0.2-0.1,0.6-0.2,0.8c-1.2,3.2-2.5,6.6-3.8,10c-1.2,3.1-2.3,6.4-3.6,9.4c-0.1,0.1-0.1,0.5-0.3,0.5c-16.3-0.2-32.7-0.3-48.9-0.5
		c-8.1-0.1-16.2-0.3-24.3-0.3c-2.7,0-5.4,0-8.1-0.1c-16.2-0.2-32.5-0.3-48.6-0.6c-10.6-0.1-21.6-0.3-32.3-0.4c-4,0-8.1,0-12.1-0.1
		c-1.4,0-2.7-0.1-4,0.2c-2.5,0.6-4.5,2.2-6.1,4.8c-0.8,1.3-1.5,2.9-2.3,4.5c-2.2,4.8-4.2,9.2-6.5,14.1c-1.3,2.8-3.4,7.3-2.5,9.3
		c0.5,1.1,2.4,1.7,3.7,1.7c1.4,0,2.8,0,4.1,0c13.6,0.1,27,0.4,40.5,0.4c2.7,0,5.9,0.4,8.5,2c2.6,1.5,4.3,3.2,5.1,5.8
		c1.9,5.9-0.7,14.5-4.3,22.9c-0.7,1.6-1.4,3.2-2.1,4.8c-4.2,9.5-8.6,19-12.9,28.3c-3.1,6.6-5.7,12.8-8.8,18.2
		c-4.6,8-10.4,14.9-16.6,18.9c-4.3,2.8-9,4.5-14.2,4.8c-2.6,0.2-5.3,0-8.1,0c-43.4-0.6-87.2-0.9-130.6-1.5
		C442.5,172.8,444.4,166.1,446.3,159.4z"/>
	<path id="E_2_" class="st0" d="M821.4,52.2c-1.8,4.5-3.9,9.2-5.8,13.7c-3.4,0-6.8-0.1-10.3-0.1c-3.6,8.5-7.2,16.9-10.8,25.4
		c3.3,0.1,6.9,0.1,10.4,0.2c-1.9,4.6-3.9,9.2-5.8,13.7c-3.4,0-6.8-0.1-10.3-0.1c-5,11.7-9.9,23.4-14.9,35c3.5,0.1,6.9,0.1,10.4,0.2
		c-2,4.5-3.9,9.1-5.8,13.7c-8.8-0.1-17.6-0.2-26.4-0.3c14.4-33.8,28.7-67.8,43.1-101.7C803.9,52,812.6,52.1,821.4,52.2z"/>
	<path id="O_4_" class="st0" d="M728.8,50.4C728.8,50.4,728.8,50.3,728.8,50.4c5.8,2,5.4,7.1,3.3,13.3c-1,2.8-2.3,5.6-3.5,8.6
		c-1.2,3-2.5,6-3.7,8.7c-5.2,12.4-9.8,23.3-14.8,35.1c-2.5,5.9-4.9,11.7-7.4,17.6c-1.3,3-2.5,5.8-3.9,8.3c-1.4,2.5-2.9,4.5-4.8,5.9
		c-1.9,1.5-3.8,2.5-5.9,3.2c-2.1,0.7-4.2,0.9-6.7,1.1c-2.3,0.2-4.7,0.2-7.2,0.1c-2.4-0.1-5-0.4-7.6-1.1c-2.9-0.9-4.6-2.5-5-4.9
		c-0.4-2.2,0.3-5.1,1.5-8.2c2.2-5.9,4.8-11.8,7.2-17.4c2.6-6,5.1-12.1,7.4-17.6c5-11.6,9.8-23.3,14.8-35.1
		c2.5-5.9,5.1-11.1,8.7-14.2c3.5-3.1,7.7-4.2,12.5-4.6c2.4-0.2,4.7-0.2,7.2-0.1C723.5,49.2,726.1,49.5,728.8,50.4z M711.3,63.5
		c-0.9,0.7-1.7,2.3-2.4,3.8c-0.7,1.5-1.4,3.3-2,4.7c-2.8,6.6-5.2,12.7-8,19c-4.1,9.4-8,18.8-12,28.4c-2,4.7-3.9,9.5-6,14.2
		c-0.7,1.6-1.6,3.4-0.7,4.2c1.2,1.2,3.2,0.3,4.1-0.5c1-0.9,1.7-2.5,2.5-4.3c1.9-4.4,3.9-9.2,5.6-13.4c5-11.8,10.2-24,15.1-35.7
		c2.1-5,4.4-10.6,6.6-15.6c1-2.3,2.3-5.1,0-5.6C713.2,62.6,712.1,62.8,711.3,63.5z"/>
	<path id="R_6_" class="st0" d="M758,101.9c2.2,1.4,4,3.2,3.8,5.8c-0.1,1.6-1,3.2-1.6,4.8c-0.2,0.4-0.2,0.8-0.4,1.2
		c-0.5,1.2-1.1,2.4-1.6,3.7c-4.7,11.3-9.9,23.4-14.6,34.5c-4,0-8-0.1-12.1-0.2c-1.3,0-2.6,0.1-3.9-0.1c5.2-12.1,10.7-25.5,16-37.9
		c0.6-1.5,1.9-3.7,0.9-4.6c-1.1-1-3.2-0.4-4.3-0.6c-6.1,14.4-12.2,28.7-18.2,43.1c-5.2,0-10.7-0.1-15.8-0.2
		c14.3-33.9,28.6-67.8,42.9-101.7c6.7,0.2,13.6,0.1,20.5,0.2c2.4,0,4.9,0.1,7.3,0.9c5.1,1.6,6.3,6.2,4.3,11.4
		c-2,5.3-4.5,10.9-6.6,16c-2.3,5.2-4.5,11-6.8,15.8c-1.3,2.6-2.5,4.4-4.3,5.6C761.9,100.9,760.1,101.4,758,101.9z M751.1,94.1
		c0.9-0.6,1.6-1.6,2.3-3.2c1.4-3.2,3-7.1,4.4-10.3c1.8-4.3,3.4-8.1,5.1-12.2c0.2-0.6,0.6-1.1,0.8-1.7c0.5-1.5,0.3-2.6-1.1-2.9
		c-1.1-0.3-2.3,0.1-3.3-0.1c-4.3,10.4-8.7,20.7-13,31.1C747.8,95,749.7,95,751.1,94.1z"/>
	<path id="T_2_" class="st0" d="M695.3,49.9c-2.1,4.6-4.2,9.2-6.3,13.8c-4.5,0-9-0.1-13.4-0.1c-12.3,29.3-24.7,58.5-37,87.8
		c-5.3-0.1-10.5-0.1-15.8-0.2c12.3-29.3,24.7-58.5,37-87.7c-4.9-0.2-10.1-0.1-15.2-0.2c2.1-4.6,4.2-9.2,6.3-13.9
		c14.8,0.1,29.5,0.3,44.3,0.5C695.3,49.9,695.3,49.8,695.3,49.9z"/>
</g>
<rect x="271.7" y="293.6" class="st1" width="411.3" height="29.4"/>
<text transform="matrix(1 0 0 1 271.7144 313.5229)" class="st2 st3 st4"> Anniversary Edition</text>
<g id="Troopers_7_">
	<path id="S_15_" class="st0" d="M585.4,218c-4.3,0-8.6-0.1-12.9-0.1c-1.4,0-2.8,0-4.2-0.1c2.4-5.9,4.8-12,7.2-17.9
		c-0.9-1.2-2.7-1.3-3.8-0.9c-0.4,0.1-0.9,0.3-1.1,0.6c-0.3,0.5-0.5,1.3-0.7,1.9c-3.5,8.9-7.6,18.7-11,27.3c0.6,0.6,1.4,0.6,2.2,0.7
		c3.7,0.2,7.2-0.2,11.2,0.4c1.6,0.2,3.4,0.6,4.7,1.5c0.8,0.6,1.3,1.5,1.4,2.6c0.2,2-1,4.7-1.9,7c-2.8,7.2-5.6,14.2-8.6,21.3
		c-1,2.4-1.9,4.9-2.8,7.1c-2.8,6.8-8.1,9.7-13.5,11.3c-3.7,1-7.7,1.5-12,1.4c-3.9-0.1-9.8-0.6-13.1-3.7c-1.5-1.5-2.3-3.2-1.9-5.4
		c0.2-1.2,0.7-2.4,1.2-3.6c2.4-5.9,4.7-11.8,7.1-17.8c0.3-0.2,0.7-0.1,1-0.1c5.2,0,10.6,0,15.9,0.1c-2.1,5.5-4.7,11.5-7,17.3
		c-0.3,0.8-0.8,2.1-0.5,2.4c0.4,0.5,1.6,0.5,2.3,0.5c0.9,0,1.7-0.1,2.2-0.6c0.9-0.8,1.3-2.5,1.8-3.7c3.3-8,6.3-15.8,9.6-24.1
		c0.5-1.2,1.5-3.3,0.8-3.9c-0.7-0.5-2.1-0.5-3-0.5c-2.9-0.1-5.7,0-8.6-0.3c-4.8-0.5-8.7-2.1-7.5-6.7c0.3-1.1,0.8-2.1,1.3-3.2
		c2.9-7.4,5.9-14.8,8.9-22.2c1.8-4.5,3.2-8.7,5.6-11.6c2.4-2.8,5.3-4.6,8.4-5.8c4.6-1.8,10.1-2.5,15.9-2.2c1.9,0.1,4.2,0.4,6.3,1
		c5.5,1.6,8.2,5,7,10c-0.4,1.8-1.4,3.8-2.1,5.6C589.1,208.6,587.3,213.5,585.4,218z"/>
	<path id="R_24_" class="st0" d="M527,234.8c1.8,1.1,3.2,2,3.9,3.6c0.7,1.6,0.1,3.5-0.7,5.7c-0.8,1.9-1.5,4.1-2.3,6.3
		c-4,10.2-8,20.8-12,31c-5.3-0.1-10.7,0-15.9-0.1c4.4-11.3,8.9-23.5,13.5-35c0.6-1.6,1.7-3.8,0.7-4.5c-0.6-0.5-1.6-0.5-2.2-0.5
		c-0.7,0-1.5,0-2,0c-5.2,13.3-10.3,26.7-15.5,40.1c-5.2,0-10.7,0-15.8,0c12.1-31.6,24.3-63,36.4-94.5c6.7,0,13.5,0.1,20.3,0
		c2.2,0,4.6,0,7,0.6c2.8,0.7,4.6,2.1,5.5,4c0.8,1.8,0.8,4.2,0,6.7c-0.2,0.5-0.4,0.9-0.5,1.4c-2.5,6.8-5.3,13.8-8,20.8
		c-0.7,1.8-1.5,3.8-2.2,5.5c-0.8,1.8-1.5,3.6-2.4,4.9C532.7,233.4,529.8,234,527,234.8z M519.8,227.4c1.2-0.9,2.2-3.5,3-5.6
		c0.8-2.1,1.8-4.8,2.5-6.7c1.2-3.4,2.5-6.7,3.8-9.9c0.7-1.8,1.9-4.1,0.9-5.1c-1-1.1-3.1-0.3-4.3-0.6c-3.7,9.7-7.4,19.3-11.1,28.9
		C516.4,228.4,518.5,228.5,519.8,227.4z"/>
	<path id="T_x5F__7_" class="st0" d="M434.3,158c-2.2,6.9-4.8,14-7.1,21c-40-0.1-79.9-0.2-119.9-0.3c-17.6,45-35.1,90.3-52.8,135.3
		c-10.3,0-20.7,0-31.2-0.1c-0.7,0-1.3,0-2,0c17.6-45,35.1-90.1,52.7-135.1c-0.9-0.2-1.7,0-2.6-0.1c-4.4,0-8.9-0.1-13.3-0.1
		c-0.9,0-1.8,0.1-2.7,0c-0.8-0.1-1.7-0.1-2.5-0.1c-7,0-14.1-0.1-21.2,0c-14.1,0-28.2,0-42.3-0.1c2.4-7,4.8-14,7.1-20.9
		C275.9,157.7,355.1,157.8,434.3,158z"/>
	<path id="E_8_" class="st0" d="M509.4,186.2c-1.5,4.2-3.3,8.6-4.9,12.8c-3.4,0-6.8,0-10.2,0c-3,7.9-6.1,15.7-9.1,23.6
		c3.3,0.1,6.9,0,10.3,0.1c-1.6,4.3-3.3,8.5-4.9,12.8c-3.4,0-6.8,0-10.2,0c-4.2,10.9-8.4,21.7-12.6,32.6c3.5,0.1,6.9,0,10.3,0.1
		c-1.7,4.2-3.3,8.5-4.9,12.8c-8.7,0-17.4,0-26.1-0.1c12.2-31.5,24.3-63,36.4-94.6C492.2,186.2,500.8,186.2,509.4,186.2z"/>
	<path id="P_15_" class="st0" d="M428.9,257.6c-2.8,7.4-5.7,14.8-8.5,22.3c-5.2,0.1-10.4,0.2-15.7,0.2c12-31.6,24.1-63.1,36.1-94.7
		c6.3,0,12.9-0.1,19.3-0.2c2.3,0,4.6-0.1,6.9,0.6c4.5,1.2,6.2,4.4,6.2,8c0,3.7-2,8.3-3.5,12.3c-4,10.6-8.1,21.1-12.1,31.6
		c-0.8,2.2-1.6,4.3-2.4,6.4c-3.2,8.5-8.5,12.6-15.5,13.4C436.3,257.8,432.6,257.5,428.9,257.6z M439.7,241.5c1-0.9,1.7-2.6,2.4-4.4
		c0.7-1.7,1.4-3.6,2-5.2c1.2-3.3,2.8-7.3,4-10.6c1.9-5.1,4-10.6,6-15.8c0.3-0.8,0.8-1.6,1-2.5c0.4-1.4,0-2.6-1.5-2.8
		c-1.1-0.1-2.1,0-2.9,0.1c-2.5,7-5.4,14-8,21.1c-2.6,7.1-5.5,14.2-8,21.2C436.3,242.6,438.5,242.7,439.7,241.5z"/>
	<path id="O_16_" class="st0" d="M425.2,184.8c3.1,0.8,4.7,2.3,5.4,4.5c1.2,4.1-1.5,10.3-3.6,15.7c-3,8.1-6.3,16.5-9.4,24.4
		c-4.1,10.6-8.2,21.6-12.5,32.4c-1.1,2.9-2.1,5.6-3.3,7.9c-1.2,2.3-2.6,4.2-4.3,5.7c-3.4,2.9-7.3,3.9-12.2,4.3
		c-2.2,0.2-4.6,0.2-7,0.2c-2.5-0.1-5.1-0.3-7.5-0.8c-3.1-0.7-5-2.2-5.6-4.3c-0.6-2-0.2-4.7,0.8-7.5c3.8-11.1,8.4-22,12.4-32.7
		c2-5.3,4.2-10.8,6.2-16.2c2-5.4,4.2-11,6.2-16.3c2.1-5.4,4.4-10.4,7.6-13.4c3.4-3.1,7.3-4.1,12-4.5c2.3-0.2,4.5-0.3,7-0.2
		c1.1,0,2.4,0.1,3.7,0.3C422.5,184.2,423.9,184.5,425.2,184.8z M407.2,200.8c-0.6,1.4-1.2,3-1.7,4.3c-2.2,6.1-4.5,11.7-6.8,17.6
		c-3.3,9-6.9,17.6-10.1,26.5c-1.5,4.2-3.3,8.9-5.1,13.2c-0.6,1.5-1.4,3.2-0.6,4c1,1,3.1,0.4,3.8-0.1c1.8-1.3,2.9-5.4,4.1-8.3
		c3.4-8.7,6.1-16.1,9.5-24.9c4-10.3,8-20.7,11.9-31c0.3-0.7,0.6-1.3,0.9-2c0.6-1.7,0.6-3.2-1.2-3.5
		C409.3,196.2,408.3,198.2,407.2,200.8z"/>
	<path id="O_15_" class="st0" d="M382.5,185.3C382.5,185.3,382.5,185.3,382.5,185.3c5.9,1.8,5.8,6.6,4.1,12.3c-0.8,2.6-1.9,5.2-3,8
		c-1,2.7-2.1,5.5-3.1,8.1c-4.4,11.5-8.3,21.7-12.5,32.6c-2.1,5.4-4.1,10.8-6.3,16.3c-1.1,2.8-2.1,5.4-3.3,7.7
		c-1.2,2.3-2.6,4.2-4.4,5.6c-1.7,1.4-3.6,2.3-5.7,3c-2,0.6-4.1,0.9-6.6,1.1c-2.3,0.2-4.7,0.2-7.1,0.1c-2.4-0.1-5-0.3-7.6-1
		c-3-0.8-4.7-2.3-5.2-4.5c-0.5-2.1,0-4.8,1-7.6c1.9-5.5,4.1-11,6.1-16.2c2.2-5.6,4.3-11.2,6.3-16.3c4.2-10.8,8.3-21.7,12.5-32.6
		c2.1-5.5,4.4-10.3,7.8-13.2c3.3-2.9,7.4-3.9,12.1-4.3c2.3-0.2,4.6-0.2,7.1-0.1C377.2,184.3,379.8,184.5,382.5,185.3z M366,197.6
		c-0.8,0.7-1.5,2.2-2.1,3.5c-0.6,1.4-1.2,3.1-1.7,4.4c-2.4,6.1-4.4,11.8-6.7,17.7c-3.4,8.7-6.7,17.5-10.2,26.4
		c-1.7,4.4-3.3,8.9-5,13.3c-0.6,1.5-1.4,3.1-0.4,3.9c1.2,1.1,3.2,0.3,4-0.5c0.9-0.8,1.5-2.4,2.2-4c1.6-4.1,3.3-8.6,4.8-12.5
		c4.3-11,8.6-22.3,12.7-33.2c1.8-4.7,3.7-9.9,5.6-14.5c0.9-2.1,2-4.7-0.3-5.2C367.8,196.8,366.7,197,366,197.6z"/>
	<path id="R_23_" class="st0" d="M324.1,232.7c2,1.1,4,2.7,4.2,4.7c0.2,1.5-0.7,3.2-1.3,5.1c-0.3,0.9-0.6,1.8-0.9,2.7
		c-4.3,11.2-8.9,23.1-13.1,34c-0.3,0.2-0.7,0.1-1,0.1c-4.9,0-10,0-14.9-0.1c4.5-11.3,9-23.8,13.6-35.3c0.5-1.3,1.7-3.4,0.7-4.2
		c-1.1-0.9-3.3-0.4-4.3-0.6c-5.2,13.4-10.3,26.7-15.5,40.1c-5.2,0-10.5,0-15.8,0c12.1-31.5,24.2-63,36.4-94.5
		c0.3-0.2,0.6-0.1,0.9-0.1c6.4,0,13.2,0,19.7,0c2.4,0,4.9,0,7.4,0.8c5,1.6,6.4,5.8,4.7,10.7c-1.7,4.9-3.8,10.1-5.6,14.8
		c-0.9,2.4-1.9,4.9-2.9,7.4c-1,2.5-1.9,5-2.9,7.2c-1.1,2.4-2.2,4.1-3.9,5.2C327.9,231.7,326.1,232.1,324.1,232.7z M317.3,225
		c0.6-0.5,1.1-1.5,1.5-2.6c0.4-1,0.9-2.1,1.3-3.1c2.2-6.1,4.6-11.8,6.7-17.7c0.2-0.5,0.5-1,0.6-1.6c0.4-1.3,0.2-2.4-1.1-2.7
		c-1.1-0.3-2.5,0.1-3.5-0.1c-3.6,9.7-7.5,19.3-11,28.9C313.8,226.2,315.9,226.3,317.3,225z"/>
</g>
<g id="Starship_8_">
	<path id="P_14_" class="st0" d="M432.3,105.2c-2.9,7.5-5.7,14.9-8.6,22.4c-5.2,0-10.4,0.1-15.7,0.2c12.1-31.5,24.1-63.1,36.2-94.5
		c0.2-0.1,0.6-0.1,0.8-0.1c6.1-0.1,12.6-0.2,18.8-0.2c1.7,0,3.3,0,5.1,0.2c0.6,0.1,1.2,0.3,1.8,0.4c0.4,0,1.1,0.4,1.6,0.6
		c5.1,2.5,5.2,7.6,3.1,13.6c-0.4,1-0.8,2.1-1.2,3.1c-0.4,1.1-0.7,2.2-1.2,3.2c-4,10.4-8.1,21-12.1,31.3c-0.8,2.1-1.6,4.3-2.3,6.4
		c-1.5,4-3.8,7.4-6.3,9.5c-2.6,2.1-5.8,3.3-9.2,3.7C439.7,105.4,436,105.1,432.3,105.2z M443.1,89.3c1-0.8,1.8-2.5,2.5-4.3
		c0.7-1.7,1.4-3.6,2-5.2c3.3-8.8,6.6-17.4,10-26.2c0.8-2.1,2.2-4.9-0.1-5.5c-1.1-0.3-2.3,0.1-3.2,0c-2.7,7-5.4,14.1-8.1,21.2
		c-2.7,7.1-5.5,14.1-8,21.1C439.7,90.2,441.8,90.4,443.1,89.3z"/>
	<path id="I_7_" class="st0" d="M437.4,33.3c-12,31.4-24.2,63-36.3,94.6c-4.6,0-9.2,0-13.8,0c-0.6,0-1.3,0-1.9,0
		c12.1-31.5,24.2-62.9,36.3-94.5C427,33.3,432.2,33.3,437.4,33.3z"/>
	<path id="S_x5F__8_" class="st0" d="M13.7,136.7c0-0.1,0.1-0.2,0.1-0.4c0.4,0.1,0.6,0,0.9,0c10.8,0,21.5,0,32.2,0.1
		c10.8,0,21.4,0,32.2,0c10.5,0,21.2,0.1,32.2,0.1c5.2,0,10.7,0,16.1,0c2.8,0,5.5,0.2,8.1,0.1c2.5-0.1,5-1.3,6.6-3
		c1.8-1.9,2.9-4.9,4.2-7.9c1.3-2.9,2.6-6,3.7-8.7c1.2-2.9,2.3-5.8,3.7-8.8c0.6-1.3,1.1-3,1.4-4.5c0.3-1.6,0.3-3-0.7-3.7
		c-1.2-0.9-2.9-0.8-4.2-0.8c-9.5,0-19.1,0-28.3-0.1c-5.3,0-10.7,0.1-16.1,0c-2.7-0.1-6.2-0.8-8.7-2.4c-2.3-1.5-3.9-3.5-4.5-5.9
		c-1.2-4.7,0-10.8,2.2-17.2c1.1-3.1,2.3-6.1,3.6-9c3.7-8.7,7.6-17.7,11.2-26.3c2.5-5.8,5.3-11.1,8.4-15.7
		c6.3-9.2,13.8-15.5,24.1-16.6c2.6-0.3,5.2-0.2,7.9-0.2c24.3,0.2,48.5,0,72.6,0.2c2.7,0,5.4,0,8,0C244.2,6,257.6,6,271,6.1
		c21.5,0.1,43,0.1,64.5,0.1c0.2,0.2-0.1,0.5-0.1,0.7c-1,3-2.1,6.2-3.2,9.3c-1,2.9-1.9,6-3,8.7c0,0.1,0,0.4-0.3,0.4
		c-16.1-0.1-32.4,0-48.4-0.1c-8,0-16-0.1-24.1-0.1c-2.7,0-5.3,0-8,0c-16-0.1-32.1,0-48.1-0.1c-10.5,0-21.4-0.1-32-0.1
		c-4,0-8.1,0-12,0c-1.4,0-2.7-0.1-3.9,0.2c-2.4,0.6-4.4,2.1-5.8,4.5c-0.7,1.2-1.3,2.7-2,4.2c-1.9,4.5-3.6,8.6-5.5,13.1
		c-1.1,2.7-2.9,6.8-2,8.7c0.5,1,2.5,1.6,3.8,1.6c1.4,0,2.8,0,4,0c13.5,0,26.7,0.1,40.1,0c2.7,0,5.8,0.4,8.6,1.7
		c2.6,1.3,4.4,2.9,5.4,5.3c2.2,5.5,0.2,13.5-2.8,21.2c-0.6,1.5-1.2,3-1.8,4.5c-3.6,8.9-7.4,17.7-11.1,26.3
		c-2.6,6.1-4.9,11.9-7.7,16.9c-4.1,7.5-9.4,13.9-15.3,17.7c-4.1,2.6-8.7,4.3-13.8,4.6c-2.5,0.2-5.2,0.1-8,0.1
		c-43-0.2-86.3-0.1-129.4-0.3C10.8,149.2,12.2,142.9,13.7,136.7z"/>
	<path id="H_7_" class="st0" d="M414.5,33.1C414.5,33.2,414.5,33.2,414.5,33.1c-12,31.6-24.1,63.1-36.2,94.6
		c-5.3-0.1-10.6,0-15.8-0.1c5.8-15.1,11.6-30.2,17.5-45.3c-1.9-0.1-3.7,0-5.5-0.1c-5.8,15.1-11.7,30.3-17.5,45.4
		c-3.9,0-7.8-0.1-11.8-0.1c-1.3,0-2.6,0-3.8-0.1c12.1-31.5,24.2-63,36.3-94.5c5.2,0.1,10.4,0,15.7,0.1c-4.7,12.2-9.3,24.3-14,36.4
		c1.9,0.1,3.7,0,5.5,0.1c3.3-8.8,7.1-18.2,10.5-27.3c0.8-2.1,1.7-4.5,2.6-6.8c0.3-0.7,0.6-2,0.9-2.2c0.2-0.2,1.3-0.1,1.9-0.1
		C405.2,33.2,410.2,33.1,414.5,33.1z"/>
	<path id="S_14_" class="st0" d="M359.5,64.2c-5.6,0-11.4-0.2-17-0.2c2.3-6.1,4.5-12,6.8-18.1c-1-1.2-2.8-1.3-3.9-0.8
		c-0.4,0.2-0.8,0.5-1,0.7c-0.3,0.5-0.5,1.2-0.7,1.8c-3.3,8.9-7,18.3-10.2,27.5c1.3,0.8,2.7,0.7,4,0.7c1.3,0,2.5,0,3.8,0.1
		c2.6,0.1,5.1,0,8,1c3.2,1.1,4,3,3.4,5.9c-0.3,1.3-0.9,2.7-1.4,4.2c-2.6,7.3-5.5,14.3-8.2,21.8c-0.5,1.5-1.1,3-1.6,4.4
		c-0.6,1.4-1.1,2.9-1.6,4.3c-1.1,2.6-2.9,4.6-4.6,6c-3.6,2.9-8,4.3-12.7,5c-2.3,0.3-4.8,0.4-7.4,0.3c-2.7-0.1-5.4-0.3-8.1-1.2
		c-3.3-1-5.3-2.6-6.3-4.5c-0.5-1.1-0.7-2.2-0.6-3.5c0.2-1.3,0.8-2.7,1.4-4.3c2-5.8,4.4-11.5,6.5-17.4c5.6,0,11.2,0.1,16.8,0.3
		c-2.2,5.7-4.4,11.7-6.6,17.6c-0.4,1-0.6,2.2-0.3,2.4c0.5,0.4,1.6,0.4,2.3,0.4c0.7,0,1.6-0.1,2-0.5c0.8-0.7,1.2-2.3,1.7-3.6
		c0.5-1.4,1.1-2.8,1.5-4c1.1-2.7,1.9-5.3,3-8.2c1.5-3.8,3-8.1,4.6-12.2c0.6-1.5,1.2-3.3,0.7-3.9c-0.4-0.4-1.8-0.5-2.7-0.5
		c-2.6-0.2-5.2,0-7.7-0.2c-3.7-0.3-8.3-1.4-8.8-4.7c-0.2-1.3,0.3-3,1-4.7c1.9-4.9,3.8-9.9,5.5-14.7c1.2-3.3,2.6-6.6,3.7-9.9
		c1.2-3.5,2.4-6.8,4-9.2c3.2-4.6,8.1-7,13.1-8.2c2.6-0.6,5.3-0.8,8.2-0.8c2.9,0,6,0.1,9.2,0.9c3.4,0.9,5.7,2.5,6.9,4.4
		c1.3,2.1,1.3,4.5,0.2,7.7C364.2,52.1,361.6,58.1,359.5,64.2z"/>
	<path id="R_22_" class="st0" d="M302.1,80.9c2.2,1.3,4.2,2.9,4.1,5.4c0,1.5-0.8,3-1.3,4.5c-0.1,0.4-0.1,0.8-0.3,1.1
		c-0.4,1.1-0.9,2.3-1.4,3.4c-4,10.5-8.4,21.7-12.3,32.1c-3.9,0.1-7.9,0-11.9,0c-1.3,0-2.6,0.1-3.9,0c4.4-11.3,9-23.7,13.5-35.3
		c0.5-1.4,1.7-3.4,0.6-4.3c-1.1-0.9-3.2-0.3-4.2-0.6c-5.1,13.4-10.3,26.7-15.4,40.1c-5.2,0-10.6,0-15.7-0.1
		c12.1-31.6,24.2-63.1,36.3-94.5c6.7,0.1,13.5,0,20.3,0c2.4,0,4.9,0.1,7.3,0.8c5.1,1.5,6.6,5.7,4.9,10.6c-1.7,4.9-3.7,10.2-5.6,14.8
		c-1.9,4.9-3.8,10.2-5.8,14.7c-1.1,2.5-2.2,4.1-3.9,5.2C305.9,79.9,304.1,80.3,302.1,80.9z M294.7,73.6c0.9-0.6,1.5-1.5,2.1-2.9
		c1.2-3,2.6-6.6,3.7-9.6c1.5-4,2.9-7.5,4.3-11.3c0.2-0.5,0.5-1,0.6-1.6c0.4-1.4,0.1-2.4-1.2-2.7c-1.1-0.2-2.3,0.1-3.3-0.1
		c-3.7,9.7-7.3,19.3-11,28.9C291.6,74.5,293.4,74.5,294.7,73.6z"/>
	<path id="T_8_" class="st0" d="M251.5,33.2c-1.8,4.3-3.6,8.5-5.4,12.8c-4.4,0.1-8.9,0-13.3,0c-10.4,27.3-20.9,54.4-31.3,81.6
		c-5.2,0-10.4,0-15.7-0.1c10.4-27.2,20.9-54.4,31.3-81.6c-4.9-0.1-10,0-15.1-0.1c1.8-4.3,3.6-8.6,5.4-12.9c14.6,0,29.3,0.1,43.9,0.1
		C251.5,33.2,251.5,33.1,251.5,33.2z"/>
	<path id="A_7_" class="st0" d="M277.2,33.2C277.3,33.2,277.2,33.2,277.2,33.2c-9.2,31.5-18.5,63-27.7,94.5c-0.6,0.2-1.3,0-2,0
		c-4.5,0-9.2,0.1-13.8,0c2.2-6.6,4.6-13.4,6.7-19.8c-1.8-0.1-3.9,0-5.8-0.1c-2.9,6.7-5.9,13.2-8.8,19.9c-4.9,0-9.8,0-14.7,0
		c14.9-31.5,29.9-63,44.8-94.5C263,33.1,270.3,33.1,277.2,33.2z M254.3,63.8c-0.7,1.8-1.5,3.4-2.3,5.2c-3.8,8.7-7.7,17.4-11.5,26.1
		c1.5,0,3,0,4.4,0c2.3-7,4.7-14,7.1-21c2.4-7,4.6-14,6.9-20.7C257.4,56.9,255.7,60.2,254.3,63.8z"/>
</g>
<g id="_x32_0th_7_">
	<g id="_x32_0_13_">
		<g>
			<path id="_x32__7_" class="st2" d="M78.8,274.8c0.8,0,1.4,0.5,1.7,1.5c0.3,1,0.3,2.2-0.1,3.5c-2.7,9.4-5.1,18.7-6.7,28.1
				c-0.2,1.4-0.7,2.5-1.4,3.5c-0.7,1-1.5,1.5-2.3,1.5c-21.2,0-42.3,0-63.5,0c-0.8,0-1.4-0.5-1.9-1.5c-0.5-1-0.6-2.2-0.4-3.5
				c1.1-6.4,2.5-12.8,4.2-19.2c0.2-0.7,0.7-2.2,1.5-4.2c0.8-2.1,2.1-4,4-5.7c8-7.1,15.3-13.5,21.7-18.9c6.3-5.5,11.8-10.3,16.2-14.6
				c4.5-4.2,8-8,10.6-11.3c2.6-3.3,4.4-6.3,5.3-9.1c0.2-0.9,0.5-1.7,0.7-2.6c0.2-0.9,0.3-1.7,0.3-2.4c-0.1-0.7-0.3-1.3-0.7-1.8
				c-0.4-0.4-1.1-0.6-2-0.6c-1.1,0-2.1,0.3-3,1c-0.9,0.7-1.8,1.5-2.5,2.6c-0.7,1-1.4,2.1-1.9,3.1c-0.6,1-1,1.9-1.4,2.7
				c-0.9,1.7-1.9,2.9-2.8,3.4c-1,0.6-1.9,0.8-3,0.8c-6.9,0-13.8,0-20.7,0c-0.7,0-1.1-0.4-1.4-1.2c-0.2-0.8-0.2-1.8,0.2-2.9
				c2.3-7,4.9-13.4,7.8-19c2.9-5.7,6-10.5,9.4-14.5c3.4-4,7.1-7.1,11.3-9.2c4.2-2.2,8.8-3.2,13.7-3.2c4.7,0,9.1,0.9,13.1,2.8
				c4,1.8,7.3,4.5,9.9,8c2.5,3.5,4.2,7.9,4.8,13c0.6,5.2-0.1,11-2.1,17.6c-1.6,5.2-3.8,10-6.5,14.6c-2.7,4.6-5.9,8.9-9.4,13.1
				c-3.6,4.2-7.6,8.3-11.9,12.4c-4.4,4.1-9.1,8.2-14,12.4C63.3,274.8,71,274.8,78.8,274.8z"/>
			<path id="_x30__7_" class="st2" d="M149.9,181.7c5,0,9.5,1.2,13.6,3.5c4,2.3,7.3,5.6,9.7,9.7c2.4,4.1,3.9,9,4.4,14.7
				c0.5,5.7-0.2,11.9-2.2,18.7c-0.7,2.6-1.6,5.6-2.8,9.1c-1.1,3.5-2.3,7.1-3.5,10.6c-1.2,3.6-2.4,7.1-3.6,10.5
				c-1.2,3.4-2.2,6.4-3.2,8.9c-2.5,6.8-5.1,13.1-7.9,18.8c-2.8,5.8-5.8,10.8-9.2,15c-3.4,4.2-7.2,7.5-11.6,9.9
				c-4.4,2.4-9.4,3.6-15.2,3.6c-5.2,0-9.9-1.2-13.9-3.6c-4-2.4-7.3-5.7-9.6-9.9c-2.4-4.2-3.8-9.2-4.1-15c-0.4-5.8,0.4-12.1,2.3-18.8
				c0.7-2.5,1.6-5.4,2.7-8.9c1.1-3.4,2.2-7,3.4-10.5c1.2-3.6,2.4-7.1,3.7-10.6c1.2-3.5,2.3-6.6,3.3-9.1c2.4-6.8,5.1-13,7.9-18.7
				c2.9-5.7,6-10.6,9.4-14.7c3.4-4.1,7.3-7.4,11.6-9.7C139.5,182.9,144.3,181.7,149.9,181.7z M146.4,229.4c0.9-3.2,1.3-6,1.2-8.3
				c-0.1-2.3-1.3-3.6-3.5-3.7c-2.2,0.1-4.1,1.4-5.6,3.7c-1.5,2.3-2.8,5.1-4,8.3c-1,2.6-2,5.5-3.1,8.7c-1.1,3.2-2.2,6.5-3.4,9.8
				c-1.2,3.3-2.3,6.6-3.3,9.9c-1,3.3-1.9,6.2-2.7,8.8c-1,3.5-1.5,6.3-1.3,8.6c0.2,2.3,1.4,3.4,3.5,3.4c2.1,0,3.9-1.1,5.5-3.4
				c1.5-2.3,2.9-5.2,4.2-8.6c0.9-2.6,2-5.5,3.1-8.8c1.1-3.3,2.3-6.6,3.4-9.9c1.2-3.3,2.2-6.6,3.3-9.8
				C144.8,234.9,145.7,232,146.4,229.4z"/>
		</g>
	</g>
	<g id="th_12_">
		<g>
			<path id="t_7_" class="st2" d="M172.3,302.7c-0.2,0.7-0.3,1.2-0.2,1.6c0.1,0.4,0.3,0.6,0.8,0.6c0.8,0,1.7,0,2.5,0
				c0.2,0,0.3,0.1,0.4,0.3c0.1,0.2,0.1,0.5,0,0.8c-0.5,1.9-0.9,3.8-1.3,5.7c0,0.3-0.2,0.6-0.3,0.8c-0.2,0.2-0.4,0.3-0.6,0.3
				c-1,0-1.9,0-2.9,0c-1,0-1.9-0.2-2.8-0.5c-0.8-0.3-1.5-0.8-2.1-1.5c-0.5-0.7-0.9-1.7-0.9-2.9c-0.1-1.2,0.1-2.7,0.6-4.5
				c0.6-1.9,1.2-3.8,1.8-5.7c-0.7,0-1.5,0-2.2,0c-0.2,0-0.3-0.1-0.4-0.3c-0.1-0.2-0.1-0.5,0.1-0.8c0.6-1.8,1.1-3.5,1.6-5.3
				c0.1-0.3,0.2-0.6,0.5-0.8c0.2-0.2,0.4-0.3,0.6-0.3c0.7,0,1.5,0,2.2,0c0.7-2.4,1.3-4.7,1.7-7.1c0-0.3,0.2-0.6,0.3-0.8
				c0.2-0.2,0.4-0.3,0.6-0.3c1.6,0,3.3,0,4.9,0c0.2,0,0.4,0.1,0.5,0.3c0.1,0.2,0.2,0.5,0.1,0.8c-0.4,2.4-1,4.7-1.7,7.1
				c1.2,0,2.4,0,3.5,0c0.2,0,0.3,0.1,0.4,0.3c0.1,0.2,0.1,0.5,0,0.8c-0.5,1.8-1.1,3.5-1.6,5.3c-0.1,0.3-0.3,0.6-0.5,0.8
				c-0.2,0.2-0.4,0.3-0.6,0.3c-1.2,0-2.4,0-3.5,0C173.4,299.5,172.8,301.1,172.3,302.7z"/>
			<path id="h_7_" class="st2" d="M183.6,311.7c0,0.3-0.2,0.6-0.3,0.8c-0.2,0.2-0.4,0.3-0.6,0.3c-1.8,0-3.6,0-5.5,0
				c-0.2,0-0.4-0.1-0.5-0.3c-0.1-0.2-0.2-0.5-0.1-0.8c1.6-9.5,6.2-19,7.8-28.5c0-0.3,0.2-0.6,0.3-0.8c0.2-0.2,0.4-0.3,0.6-0.3
				c1.8,0,3.6,0,5.5,0c0.2,0,0.4,0.1,0.5,0.3c0.1,0.2,0.2,0.5,0.1,0.8c-0.5,3.1-1.4,6.2-2.3,9.4c0.7-0.8,1.5-1.5,2.3-2
				c0.8-0.5,1.6-0.7,2.5-0.7c0.8,0,1.5,0.2,2.1,0.6c0.6,0.4,1,1,1.3,1.8c0.3,0.8,0.4,1.8,0.3,3.1c-0.1,1.2-0.4,2.7-0.9,4.4
				c-1.3,4-2.5,8-3.2,12c0,0.3-0.2,0.6-0.3,0.8c-0.2,0.2-0.4,0.3-0.6,0.3c-1.8,0-3.7,0-5.5,0c-0.2,0-0.4-0.1-0.5-0.3
				c-0.1-0.2-0.2-0.5-0.1-0.8c0.6-3.9,1.8-7.8,3-11.7c0.5-1.6,0.3-2.4-0.6-2.4c-0.4,0-0.9,0.2-1.2,0.6c-0.4,0.4-0.7,1-1,1.8
				C185.4,303.9,184.2,307.8,183.6,311.7z"/>
		</g>
	</g>
</g>
</svg>
