<?xml version="1.0" encoding="utf-8"?>
<!-- Generator: Adobe Illustrator 22.1.0, SVG Export Plug-In . SVG Version: 6.00 Build 0)  -->
<svg version="1.1" id="Layer_1" xmlns="http://www.w3.org/2000/svg" xmlns:xlink="http://www.w3.org/1999/xlink" x="0px" y="0px"
	 viewBox="0 0 610 330" style="enable-background:new 0 0 610 330;" xml:space="preserve">
<style type="text/css">
	.st0{fill-rule:evenodd;clip-rule:evenodd;fill:none;}
	.st1{fill:#536B7F;}
	.st2{font-family:'Rubik-BlackItalic';}
	.st3{font-size:28px;}
	.st4{fill-rule:evenodd;clip-rule:evenodd;fill:#B78B4E;}
</style>
<rect x="278.7" y="297.6" class="st0" width="411.3" height="29.4"/>
<text transform="matrix(1 0 0 1 278.7144 317.5229)" class="st1 st2 st3"> Anniversary Edition</text>
<g id="Troopers_4_">
	<path id="S_9_" class="st4" d="M592.4,222c-4.3,0-8.6-0.1-12.9-0.1c-1.4,0-2.8,0-4.2-0.1c2.4-5.9,4.8-12,7.2-17.9
		c-0.9-1.2-2.7-1.3-3.8-0.9c-0.4,0.1-0.9,0.3-1.1,0.6c-0.3,0.5-0.5,1.3-0.7,1.9c-3.5,8.9-7.6,18.7-11,27.3c0.6,0.6,1.4,0.6,2.2,0.7
		c3.7,0.2,7.2-0.2,11.2,0.4c1.6,0.2,3.4,0.6,4.7,1.5c0.8,0.6,1.3,1.5,1.4,2.6c0.2,2-1,4.7-1.9,7c-2.8,7.2-5.6,14.2-8.6,21.3
		c-1,2.4-1.9,4.9-2.8,7.1c-2.8,6.8-8.1,9.7-13.5,11.3c-3.7,1-7.7,1.5-12,1.4c-3.9-0.1-9.8-0.6-13.1-3.7c-1.5-1.5-2.3-3.2-1.9-5.4
		c0.2-1.2,0.7-2.4,1.2-3.6c2.4-5.9,4.7-11.8,7.1-17.8c0.3-0.2,0.7-0.1,1-0.1c5.2,0,10.6,0,15.9,0.1c-2.1,5.5-4.7,11.5-7,17.3
		c-0.3,0.8-0.8,2.1-0.5,2.4c0.4,0.5,1.6,0.5,2.3,0.5c0.9,0,1.7-0.1,2.2-0.6c0.9-0.8,1.3-2.5,1.8-3.7c3.3-8,6.3-15.8,9.6-24.1
		c0.5-1.2,1.5-3.3,0.8-3.9c-0.7-0.5-2.1-0.5-3-0.5c-2.9-0.1-5.7,0-8.6-0.3c-4.8-0.5-8.7-2.1-7.5-6.7c0.3-1.1,0.8-2.1,1.3-3.2
		c2.9-7.4,5.9-14.8,8.9-22.2c1.8-4.5,3.2-8.7,5.6-11.6c2.4-2.8,5.3-4.6,8.4-5.8c4.6-1.8,10.1-2.5,15.9-2.2c1.9,0.1,4.2,0.4,6.3,1
		c5.5,1.6,8.2,5,7,10c-0.4,1.8-1.4,3.8-2.1,5.6C596.1,212.6,594.3,217.5,592.4,222z"/>
	<path id="R_18_" class="st4" d="M534,238.8c1.8,1.1,3.2,2,3.9,3.6c0.7,1.6,0.1,3.5-0.7,5.7c-0.8,1.9-1.5,4.1-2.3,6.3
		c-4,10.2-8,20.8-12,31c-5.3-0.1-10.7,0-15.9-0.1c4.4-11.3,8.9-23.5,13.5-35c0.6-1.6,1.7-3.8,0.7-4.5c-0.6-0.5-1.6-0.5-2.2-0.5
		c-0.7,0-1.5,0-2,0c-5.2,13.3-10.3,26.7-15.5,40.1c-5.2,0-10.7,0-15.8,0c12.1-31.6,24.3-63,36.4-94.5c6.7,0,13.5,0.1,20.3,0
		c2.2,0,4.6,0,7,0.6c2.8,0.7,4.6,2.1,5.5,4c0.8,1.8,0.8,4.2,0,6.7c-0.2,0.5-0.4,0.9-0.5,1.4c-2.5,6.8-5.3,13.8-8,20.8
		c-0.7,1.8-1.5,3.8-2.2,5.5c-0.8,1.8-1.5,3.6-2.4,4.9C539.7,237.4,536.8,238,534,238.8z M526.8,231.4c1.2-0.9,2.2-3.5,3-5.6
		c0.8-2.1,1.8-4.8,2.5-6.7c1.2-3.4,2.5-6.7,3.8-9.9c0.7-1.8,1.9-4.1,0.9-5.1c-1-1.1-3.1-0.3-4.3-0.6c-3.7,9.7-7.4,19.3-11.1,28.9
		C523.4,232.4,525.5,232.5,526.8,231.4z"/>
	<path id="T_x5F__4_" class="st4" d="M441.3,162c-2.2,6.9-4.8,14-7.1,21c-40-0.1-79.9-0.2-119.9-0.3c-17.6,45-35.1,90.3-52.8,135.3
		c-10.3,0-20.7,0-31.2-0.1c-0.7,0-1.3,0-2,0c17.6-45,35.1-90.1,52.7-135.1c-0.9-0.2-1.7,0-2.6-0.1c-4.4,0-8.9-0.1-13.3-0.1
		c-0.9,0-1.8,0.1-2.7,0c-0.8-0.1-1.7-0.1-2.5-0.1c-7,0-14.1-0.1-21.2,0c-14.1,0-28.2,0-42.3-0.1c2.4-7,4.8-14,7.1-20.9
		C282.9,161.7,362.1,161.8,441.3,162z"/>
	<path id="E_6_" class="st4" d="M516.4,190.2c-1.5,4.2-3.3,8.6-4.9,12.8c-3.4,0-6.8,0-10.2,0c-3,7.9-6.1,15.7-9.1,23.6
		c3.3,0.1,6.9,0,10.3,0.1c-1.6,4.3-3.3,8.5-4.9,12.8c-3.4,0-6.8,0-10.2,0c-4.2,10.9-8.4,21.7-12.6,32.6c3.5,0.1,6.9,0,10.3,0.1
		c-1.7,4.2-3.3,8.5-4.9,12.8c-8.7,0-17.4,0-26.1-0.1c12.2-31.5,24.3-63,36.4-94.6C499.2,190.2,507.8,190.2,516.4,190.2z"/>
	<path id="P_9_" class="st4" d="M435.9,261.6c-2.8,7.4-5.7,14.8-8.5,22.3c-5.2,0.1-10.4,0.2-15.7,0.2c12-31.6,24.1-63.1,36.1-94.7
		c6.3,0,12.9-0.1,19.3-0.2c2.3,0,4.6-0.1,6.9,0.6c4.5,1.2,6.2,4.4,6.2,8c0,3.7-2,8.3-3.5,12.3c-4,10.6-8.1,21.1-12.1,31.6
		c-0.8,2.2-1.6,4.3-2.4,6.4c-3.2,8.5-8.5,12.6-15.5,13.4C443.3,261.8,439.6,261.5,435.9,261.6z M446.7,245.5c1-0.9,1.7-2.6,2.4-4.4
		c0.7-1.7,1.4-3.6,2-5.2c1.2-3.3,2.8-7.3,4-10.6c1.9-5.1,4-10.6,6-15.8c0.3-0.8,0.8-1.6,1-2.5c0.4-1.4,0-2.6-1.5-2.8
		c-1.1-0.1-2.1,0-2.9,0.1c-2.5,7-5.4,14-8,21.1c-2.6,7.1-5.5,14.2-8,21.2C443.3,246.6,445.5,246.7,446.7,245.5z"/>
	<path id="O_12_" class="st4" d="M432.2,188.8c3.1,0.8,4.7,2.3,5.4,4.5c1.2,4.1-1.5,10.3-3.6,15.7c-3,8.1-6.3,16.5-9.4,24.4
		c-4.1,10.6-8.2,21.6-12.5,32.4c-1.1,2.9-2.1,5.6-3.3,7.9c-1.2,2.3-2.6,4.2-4.3,5.7c-3.4,2.9-7.3,3.9-12.2,4.3
		c-2.2,0.2-4.6,0.2-7,0.2c-2.5-0.1-5.1-0.3-7.5-0.8c-3.1-0.7-5-2.2-5.6-4.3c-0.6-2-0.2-4.7,0.8-7.5c3.8-11.1,8.4-22,12.4-32.7
		c2-5.3,4.2-10.8,6.2-16.2c2-5.4,4.2-11,6.2-16.3c2.1-5.4,4.4-10.4,7.6-13.4c3.4-3.1,7.3-4.1,12-4.5c2.3-0.2,4.5-0.3,7-0.2
		c1.1,0,2.4,0.1,3.7,0.3C429.5,188.2,430.9,188.5,432.2,188.8z M414.2,204.8c-0.6,1.4-1.2,3-1.7,4.3c-2.2,6.1-4.5,11.7-6.8,17.6
		c-3.3,9-6.9,17.6-10.1,26.5c-1.5,4.2-3.3,8.9-5.1,13.2c-0.6,1.5-1.4,3.2-0.6,4c1,1,3.1,0.4,3.8-0.1c1.8-1.3,2.9-5.4,4.1-8.3
		c3.4-8.7,6.1-16.1,9.5-24.9c4-10.3,8-20.7,11.9-31c0.3-0.7,0.6-1.3,0.9-2c0.6-1.7,0.6-3.2-1.2-3.5
		C416.3,200.2,415.3,202.2,414.2,204.8z"/>
	<path id="O_9_" class="st4" d="M389.5,189.3C389.5,189.3,389.5,189.3,389.5,189.3c5.9,1.8,5.8,6.6,4.1,12.3c-0.8,2.6-1.9,5.2-3,8
		c-1,2.7-2.1,5.5-3.1,8.1c-4.4,11.5-8.3,21.7-12.5,32.6c-2.1,5.4-4.1,10.8-6.3,16.3c-1.1,2.8-2.1,5.4-3.3,7.7
		c-1.2,2.3-2.6,4.2-4.4,5.6c-1.7,1.4-3.6,2.3-5.7,3c-2,0.6-4.1,0.9-6.6,1.1c-2.3,0.2-4.7,0.2-7.1,0.1c-2.4-0.1-5-0.3-7.6-1
		c-3-0.8-4.7-2.3-5.2-4.5c-0.5-2.1,0-4.8,1-7.6c1.9-5.5,4.1-11,6.1-16.2c2.2-5.6,4.3-11.2,6.3-16.3c4.2-10.8,8.3-21.7,12.5-32.6
		c2.1-5.5,4.4-10.3,7.8-13.2c3.3-2.9,7.4-3.9,12.1-4.3c2.3-0.2,4.6-0.2,7.1-0.1C384.2,188.3,386.8,188.5,389.5,189.3z M373,201.6
		c-0.8,0.7-1.5,2.2-2.1,3.5c-0.6,1.4-1.2,3.1-1.7,4.4c-2.4,6.1-4.4,11.8-6.7,17.7c-3.4,8.7-6.7,17.5-10.2,26.4
		c-1.7,4.4-3.3,8.9-5,13.3c-0.6,1.5-1.4,3.1-0.4,3.9c1.2,1.1,3.2,0.3,4-0.5c0.9-0.8,1.5-2.4,2.2-4c1.6-4.1,3.3-8.6,4.8-12.5
		c4.3-11,8.6-22.3,12.7-33.2c1.8-4.7,3.7-9.9,5.6-14.5c0.9-2.1,2-4.7-0.3-5.2C374.8,200.8,373.7,201,373,201.6z"/>
	<path id="R_14_" class="st4" d="M331.1,236.7c2,1.1,4,2.7,4.2,4.7c0.2,1.5-0.7,3.2-1.3,5.1c-0.3,0.9-0.6,1.8-0.9,2.7
		c-4.3,11.2-8.9,23.1-13.1,34c-0.3,0.2-0.7,0.1-1,0.1c-4.9,0-10,0-14.9-0.1c4.5-11.3,9-23.8,13.6-35.3c0.5-1.3,1.7-3.4,0.7-4.2
		c-1.1-0.9-3.3-0.4-4.3-0.6c-5.2,13.4-10.3,26.7-15.5,40.1c-5.2,0-10.5,0-15.8,0c12.1-31.5,24.2-63,36.4-94.5
		c0.3-0.2,0.6-0.1,0.9-0.1c6.4,0,13.2,0,19.7,0c2.4,0,4.9,0,7.4,0.8c5,1.6,6.4,5.8,4.7,10.7c-1.7,4.9-3.8,10.1-5.6,14.8
		c-0.9,2.4-1.9,4.9-2.9,7.4c-1,2.5-1.9,5-2.9,7.2c-1.1,2.4-2.2,4.1-3.9,5.2C334.9,235.7,333.1,236.1,331.1,236.7z M324.3,229
		c0.6-0.5,1.1-1.5,1.5-2.6c0.4-1,0.9-2.1,1.3-3.1c2.2-6.1,4.6-11.8,6.7-17.7c0.2-0.5,0.5-1,0.6-1.6c0.4-1.3,0.2-2.4-1.1-2.7
		c-1.1-0.3-2.5,0.1-3.5-0.1c-3.6,9.7-7.5,19.3-11,28.9C320.8,230.2,322.9,230.3,324.3,229z"/>
</g>
<g id="Starship_6_">
	<path id="P_8_" class="st4" d="M439.3,109.2c-2.9,7.5-5.7,14.9-8.6,22.4c-5.2,0-10.4,0.1-15.7,0.2c12.1-31.5,24.1-63.1,36.2-94.5
		c0.2-0.1,0.6-0.1,0.8-0.1c6.1-0.1,12.6-0.2,18.8-0.2c1.7,0,3.3,0,5.1,0.2c0.6,0.1,1.2,0.3,1.8,0.4c0.4,0,1.1,0.4,1.6,0.6
		c5.1,2.5,5.2,7.6,3.1,13.6c-0.4,1-0.8,2.1-1.2,3.1c-0.4,1.1-0.7,2.2-1.2,3.2c-4,10.4-8.1,21-12.1,31.3c-0.8,2.1-1.6,4.3-2.3,6.4
		c-1.5,4-3.8,7.4-6.3,9.5c-2.6,2.1-5.8,3.3-9.2,3.7C446.7,109.4,443,109.1,439.3,109.2z M450.1,93.3c1-0.8,1.8-2.5,2.5-4.3
		c0.7-1.7,1.4-3.6,2-5.2c3.3-8.8,6.6-17.4,10-26.2c0.8-2.1,2.2-4.9-0.1-5.5c-1.1-0.3-2.3,0.1-3.2,0c-2.7,7-5.4,14.1-8.1,21.2
		c-2.7,7.1-5.5,14.1-8,21.1C446.7,94.2,448.8,94.4,450.1,93.3z"/>
	<path id="I_4_" class="st4" d="M444.4,37.3c-12,31.4-24.2,63-36.3,94.6c-4.6,0-9.2,0-13.8,0c-0.6,0-1.3,0-1.9,0
		c12.1-31.5,24.2-62.9,36.3-94.5C434,37.3,439.2,37.3,444.4,37.3z"/>
	<path id="S_x5F__6_" class="st4" d="M20.7,140.7c0-0.1,0.1-0.2,0.1-0.4c0.4,0.1,0.6,0,0.9,0c10.8,0,21.5,0,32.2,0.1
		c10.8,0,21.4,0,32.2,0c10.5,0,21.2,0.1,32.2,0.1c5.2,0,10.7,0,16.1,0c2.8,0,5.5,0.2,8.1,0.1c2.5-0.1,5-1.3,6.6-3
		c1.8-1.9,2.9-4.9,4.2-7.9c1.3-2.9,2.6-6,3.7-8.7c1.2-2.9,2.3-5.8,3.7-8.8c0.6-1.3,1.1-3,1.4-4.5c0.3-1.6,0.3-3-0.7-3.7
		c-1.2-0.9-2.9-0.8-4.2-0.8c-9.5,0-19.1,0-28.3-0.1c-5.3,0-10.7,0.1-16.1,0c-2.7-0.1-6.2-0.8-8.7-2.4c-2.3-1.5-3.9-3.5-4.5-5.9
		c-1.2-4.7,0-10.8,2.2-17.2c1.1-3.1,2.3-6.1,3.6-9c3.7-8.7,7.6-17.7,11.2-26.3c2.5-5.8,5.3-11.1,8.4-15.7
		c6.3-9.2,13.8-15.5,24.1-16.6c2.6-0.3,5.2-0.2,7.9-0.2c24.3,0.2,48.5,0,72.6,0.2c2.7,0,5.4,0,8,0c13.5-0.1,26.9,0,40.3,0.1
		c21.5,0.1,43,0.1,64.5,0.1c0.2,0.2-0.1,0.5-0.1,0.7c-1,3-2.1,6.2-3.2,9.3c-1,2.9-1.9,6-3,8.7c0,0.1,0,0.4-0.3,0.4
		c-16.1-0.1-32.4,0-48.4-0.1c-8,0-16-0.1-24.1-0.1c-2.7,0-5.3,0-8,0c-16-0.1-32.1,0-48.1-0.1c-10.5,0-21.4-0.1-32-0.1
		c-4,0-8.1,0-12,0c-1.4,0-2.7-0.1-3.9,0.2c-2.4,0.6-4.4,2.1-5.8,4.5c-0.7,1.2-1.3,2.7-2,4.2c-1.9,4.5-3.6,8.6-5.5,13.1
		c-1.1,2.7-2.9,6.8-2,8.7c0.5,1,2.5,1.6,3.8,1.6c1.4,0,2.8,0,4,0c13.5,0,26.7,0.1,40.1,0c2.7,0,5.8,0.4,8.6,1.7
		c2.6,1.3,4.4,2.9,5.4,5.3c2.2,5.5,0.2,13.5-2.8,21.2c-0.6,1.5-1.2,3-1.8,4.5c-3.6,8.9-7.4,17.7-11.1,26.3
		c-2.6,6.1-4.9,11.9-7.7,16.9c-4.1,7.5-9.4,13.9-15.3,17.7c-4.1,2.6-8.7,4.3-13.8,4.6c-2.5,0.2-5.2,0.1-8,0.1
		c-43-0.2-86.3-0.1-129.4-0.3C17.8,153.2,19.2,146.9,20.7,140.7z"/>
	<path id="H_4_" class="st4" d="M421.5,37.1C421.5,37.2,421.5,37.2,421.5,37.1c-12,31.6-24.1,63.1-36.2,94.6
		c-5.3-0.1-10.6,0-15.8-0.1c5.8-15.1,11.6-30.2,17.5-45.3c-1.9-0.1-3.7,0-5.5-0.1c-5.8,15.1-11.7,30.3-17.5,45.4
		c-3.9,0-7.8-0.1-11.8-0.1c-1.3,0-2.6,0-3.8-0.1c12.1-31.5,24.2-63,36.3-94.5c5.2,0.1,10.4,0,15.7,0.1c-4.7,12.2-9.3,24.3-14,36.4
		c1.9,0.1,3.7,0,5.5,0.1c3.3-8.8,7.1-18.2,10.5-27.3c0.8-2.1,1.7-4.5,2.6-6.8c0.3-0.7,0.6-2,0.9-2.2c0.2-0.2,1.3-0.1,1.9-0.1
		C412.2,37.2,417.2,37.1,421.5,37.1z"/>
	<path id="S_8_" class="st4" d="M366.5,68.2c-5.6,0-11.4-0.2-17-0.2c2.3-6.1,4.5-12,6.8-18.1c-1-1.2-2.8-1.3-3.9-0.8
		c-0.4,0.2-0.8,0.5-1,0.7c-0.3,0.5-0.5,1.2-0.7,1.8c-3.3,8.9-7,18.3-10.2,27.5c1.3,0.8,2.7,0.7,4,0.7c1.3,0,2.5,0,3.8,0.1
		c2.6,0.1,5.1,0,8,1c3.2,1.1,4,3,3.4,5.9c-0.3,1.3-0.9,2.7-1.4,4.2c-2.6,7.3-5.5,14.3-8.2,21.8c-0.5,1.5-1.1,3-1.6,4.4
		c-0.6,1.4-1.1,2.9-1.6,4.3c-1.1,2.6-2.9,4.6-4.6,6c-3.6,2.9-8,4.3-12.7,5c-2.3,0.3-4.8,0.4-7.4,0.3c-2.7-0.1-5.4-0.3-8.1-1.2
		c-3.3-1-5.3-2.6-6.3-4.5c-0.5-1.1-0.7-2.2-0.6-3.5c0.2-1.3,0.8-2.7,1.4-4.3c2-5.8,4.4-11.5,6.5-17.4c5.6,0,11.2,0.1,16.8,0.3
		c-2.2,5.7-4.4,11.7-6.6,17.6c-0.4,1-0.6,2.2-0.3,2.4c0.5,0.4,1.6,0.4,2.3,0.4c0.7,0,1.6-0.1,2-0.5c0.8-0.7,1.2-2.3,1.7-3.6
		c0.5-1.4,1.1-2.8,1.5-4c1.1-2.7,1.9-5.3,3-8.2c1.5-3.8,3-8.1,4.6-12.2c0.6-1.5,1.2-3.3,0.7-3.9c-0.4-0.4-1.8-0.5-2.7-0.5
		c-2.6-0.2-5.2,0-7.7-0.2c-3.7-0.3-8.3-1.4-8.8-4.7c-0.2-1.3,0.3-3,1-4.7c1.9-4.9,3.8-9.9,5.5-14.7c1.2-3.3,2.6-6.6,3.7-9.9
		c1.2-3.5,2.4-6.8,4-9.2c3.2-4.6,8.1-7,13.1-8.2c2.6-0.6,5.3-0.8,8.2-0.8c2.9,0,6,0.1,9.2,0.9c3.4,0.9,5.7,2.5,6.9,4.4
		c1.3,2.1,1.3,4.5,0.2,7.7C371.2,56.1,368.6,62.1,366.5,68.2z"/>
	<path id="R_13_" class="st4" d="M309.1,84.9c2.2,1.3,4.2,2.9,4.1,5.4c0,1.5-0.8,3-1.3,4.5c-0.1,0.4-0.1,0.8-0.3,1.1
		c-0.4,1.1-0.9,2.3-1.4,3.4c-4,10.5-8.4,21.7-12.3,32.1c-3.9,0.1-7.9,0-11.9,0c-1.3,0-2.6,0.1-3.9,0c4.4-11.3,9-23.7,13.5-35.3
		c0.5-1.4,1.7-3.4,0.6-4.3c-1.1-0.9-3.2-0.3-4.2-0.6c-5.1,13.4-10.3,26.7-15.4,40.1c-5.2,0-10.6,0-15.7-0.1
		c12.1-31.6,24.2-63.1,36.3-94.5c6.7,0.1,13.5,0,20.3,0c2.4,0,4.9,0.1,7.3,0.8c5.1,1.5,6.6,5.7,4.9,10.6c-1.7,4.9-3.7,10.2-5.6,14.8
		c-1.9,4.9-3.8,10.2-5.8,14.7c-1.1,2.5-2.2,4.1-3.9,5.2C312.9,83.9,311.1,84.3,309.1,84.9z M301.7,77.6c0.9-0.6,1.5-1.5,2.1-2.9
		c1.2-3,2.6-6.6,3.7-9.6c1.5-4,2.9-7.5,4.3-11.3c0.2-0.5,0.5-1,0.6-1.6c0.4-1.4,0.1-2.4-1.2-2.7c-1.1-0.2-2.3,0.1-3.3-0.1
		c-3.7,9.7-7.3,19.3-11,28.9C298.6,78.5,300.4,78.5,301.7,77.6z"/>
	<path id="T_6_" class="st4" d="M258.5,37.2c-1.8,4.3-3.6,8.5-5.4,12.8c-4.4,0.1-8.9,0-13.3,0c-10.4,27.3-20.9,54.4-31.3,81.6
		c-5.2,0-10.4,0-15.7-0.1c10.4-27.2,20.9-54.4,31.3-81.6c-4.9-0.1-10,0-15.1-0.1c1.8-4.3,3.6-8.6,5.4-12.9c14.6,0,29.3,0.1,43.9,0.1
		C258.5,37.2,258.5,37.1,258.5,37.2z"/>
	<path id="A_4_" class="st4" d="M284.2,37.2C284.3,37.2,284.2,37.2,284.2,37.2c-9.2,31.5-18.5,63-27.7,94.5c-0.6,0.2-1.3,0-2,0
		c-4.5,0-9.2,0.1-13.8,0c2.2-6.6,4.6-13.4,6.7-19.8c-1.8-0.1-3.9,0-5.8-0.1c-2.9,6.7-5.9,13.2-8.8,19.9c-4.9,0-9.8,0-14.7,0
		c14.9-31.5,29.9-63,44.8-94.5C270,37.1,277.3,37.1,284.2,37.2z M261.3,67.8c-0.7,1.8-1.5,3.4-2.3,5.2c-3.8,8.7-7.7,17.4-11.5,26.1
		c1.5,0,3,0,4.4,0c2.3-7,4.7-14,7.1-21c2.4-7,4.6-14,6.9-20.7C264.4,60.9,262.7,64.2,261.3,67.8z"/>
</g>
<g id="_x32_0th_1_">
	<g id="_x32_0_1_">
		<g>
			<path id="_x32__8_" class="st1" d="M85.8,278.8c0.8,0,1.4,0.5,1.7,1.5c0.3,1,0.3,2.2-0.1,3.5c-2.7,9.4-5.1,18.7-6.7,28.1
				c-0.2,1.4-0.7,2.5-1.4,3.5c-0.7,1-1.5,1.5-2.3,1.5c-21.2,0-42.3,0-63.5,0c-0.8,0-1.4-0.5-1.9-1.5c-0.5-1-0.6-2.2-0.4-3.5
				c1.1-6.4,2.5-12.8,4.2-19.2c0.2-0.7,0.7-2.2,1.5-4.2c0.8-2.1,2.1-4,4-5.7c8-7.1,15.3-13.5,21.7-18.9c6.3-5.5,11.8-10.3,16.2-14.6
				c4.5-4.2,8-8,10.6-11.3c2.6-3.3,4.4-6.3,5.3-9.1c0.2-0.9,0.5-1.7,0.7-2.6c0.2-0.9,0.3-1.7,0.3-2.4c-0.1-0.7-0.3-1.3-0.7-1.8
				c-0.4-0.4-1.1-0.6-2-0.6c-1.1,0-2.1,0.3-3,1c-0.9,0.7-1.8,1.5-2.5,2.6c-0.7,1-1.4,2.1-1.9,3.1c-0.6,1-1,1.9-1.4,2.7
				c-0.9,1.7-1.9,2.9-2.8,3.4c-1,0.6-1.9,0.8-3,0.8c-6.9,0-13.8,0-20.7,0c-0.7,0-1.1-0.4-1.4-1.2c-0.2-0.8-0.2-1.8,0.2-2.9
				c2.3-7,4.9-13.4,7.8-19c2.9-5.7,6-10.5,9.4-14.5c3.4-4,7.1-7.1,11.3-9.2c4.2-2.2,8.8-3.2,13.7-3.2c4.7,0,9.1,0.9,13.1,2.8
				c4,1.8,7.3,4.5,9.9,8c2.5,3.5,4.2,7.9,4.8,13c0.6,5.2-0.1,11-2.1,17.6c-1.6,5.2-3.8,10-6.5,14.6c-2.7,4.6-5.9,8.9-9.4,13.1
				c-3.6,4.2-7.6,8.3-11.9,12.4c-4.4,4.1-9.1,8.2-14,12.4C70.3,278.8,78,278.8,85.8,278.8z"/>
			<path id="_x30__8_" class="st1" d="M156.9,185.7c5,0,9.5,1.2,13.6,3.5c4,2.3,7.3,5.6,9.7,9.7c2.4,4.1,3.9,9,4.4,14.7
				c0.5,5.7-0.2,11.9-2.2,18.7c-0.7,2.6-1.6,5.6-2.8,9.1c-1.1,3.5-2.3,7.1-3.5,10.6c-1.2,3.6-2.4,7.1-3.6,10.5
				c-1.2,3.4-2.2,6.4-3.2,8.9c-2.5,6.8-5.1,13.1-7.9,18.8c-2.8,5.8-5.8,10.8-9.2,15c-3.4,4.2-7.2,7.5-11.6,9.9
				c-4.4,2.4-9.4,3.6-15.2,3.6c-5.2,0-9.9-1.2-13.9-3.6c-4-2.4-7.3-5.7-9.6-9.9c-2.4-4.2-3.8-9.2-4.1-15c-0.4-5.8,0.4-12.1,2.3-18.8
				c0.7-2.5,1.6-5.4,2.7-8.9c1.1-3.4,2.2-7,3.4-10.5c1.2-3.6,2.4-7.1,3.7-10.6c1.2-3.5,2.3-6.6,3.3-9.1c2.4-6.8,5.1-13,7.9-18.7
				c2.9-5.7,6-10.6,9.4-14.7c3.4-4.1,7.3-7.4,11.6-9.7C146.5,186.9,151.3,185.7,156.9,185.7z M153.4,233.4c0.9-3.2,1.3-6,1.2-8.3
				c-0.1-2.3-1.3-3.6-3.5-3.7c-2.2,0.1-4.1,1.4-5.6,3.7c-1.5,2.3-2.8,5.1-4,8.3c-1,2.6-2,5.5-3.1,8.7c-1.1,3.2-2.2,6.5-3.4,9.8
				c-1.2,3.3-2.3,6.6-3.3,9.9c-1,3.3-1.9,6.2-2.7,8.8c-1,3.5-1.5,6.3-1.3,8.6c0.2,2.3,1.4,3.4,3.5,3.4c2.1,0,3.9-1.1,5.5-3.4
				c1.5-2.3,2.9-5.2,4.2-8.6c0.9-2.6,2-5.5,3.1-8.8c1.1-3.3,2.3-6.6,3.4-9.9c1.1-3.3,2.2-6.6,3.3-9.8
				C151.8,238.9,152.7,236,153.4,233.4z"/>
		</g>
	</g>
	<g id="th_1_">
		<g>
			<path id="t_8_" class="st1" d="M179.3,306.7c-0.2,0.7-0.3,1.2-0.2,1.6c0.1,0.4,0.3,0.6,0.8,0.6c0.8,0,1.7,0,2.5,0
				c0.2,0,0.3,0.1,0.4,0.3c0.1,0.2,0.1,0.5,0,0.8c-0.5,1.9-0.9,3.8-1.3,5.7c0,0.3-0.2,0.6-0.3,0.8c-0.2,0.2-0.4,0.3-0.6,0.3
				c-1,0-1.9,0-2.9,0c-1,0-1.9-0.2-2.8-0.5c-0.8-0.3-1.5-0.8-2.1-1.5c-0.5-0.7-0.9-1.7-0.9-2.9c-0.1-1.2,0.1-2.7,0.6-4.5
				c0.6-1.9,1.2-3.8,1.8-5.7c-0.7,0-1.5,0-2.2,0c-0.2,0-0.3-0.1-0.4-0.3c-0.1-0.2-0.1-0.5,0.1-0.8c0.6-1.8,1.1-3.5,1.6-5.3
				c0.1-0.3,0.2-0.6,0.5-0.8c0.2-0.2,0.4-0.3,0.6-0.3c0.7,0,1.5,0,2.2,0c0.7-2.4,1.3-4.7,1.7-7.1c0-0.3,0.2-0.6,0.3-0.8
				c0.2-0.2,0.4-0.3,0.6-0.3c1.6,0,3.3,0,4.9,0c0.2,0,0.4,0.1,0.5,0.3c0.1,0.2,0.2,0.5,0.1,0.8c-0.4,2.4-1,4.7-1.7,7.1
				c1.2,0,2.4,0,3.5,0c0.2,0,0.3,0.1,0.4,0.3c0.1,0.2,0.1,0.5,0,0.8c-0.5,1.8-1.1,3.5-1.6,5.3c-0.1,0.3-0.3,0.6-0.5,0.8
				c-0.2,0.2-0.4,0.3-0.6,0.3c-1.2,0-2.4,0-3.5,0C180.4,303.5,179.8,305.1,179.3,306.7z"/>
			<path id="h_8_" class="st1" d="M190.6,315.7c0,0.3-0.2,0.6-0.3,0.8c-0.2,0.2-0.4,0.3-0.6,0.3c-1.8,0-3.6,0-5.5,0
				c-0.2,0-0.4-0.1-0.5-0.3c-0.1-0.2-0.2-0.5-0.1-0.8c1.6-9.5,6.2-19,7.8-28.5c0-0.3,0.2-0.6,0.3-0.8c0.2-0.2,0.4-0.3,0.6-0.3
				c1.8,0,3.6,0,5.5,0c0.2,0,0.4,0.1,0.5,0.3c0.1,0.2,0.2,0.5,0.1,0.8c-0.5,3.1-1.4,6.2-2.3,9.4c0.7-0.8,1.5-1.5,2.3-2
				c0.8-0.5,1.6-0.7,2.5-0.7c0.8,0,1.5,0.2,2.1,0.6c0.6,0.4,1,1,1.3,1.8c0.3,0.8,0.4,1.8,0.3,3.1c-0.1,1.2-0.4,2.7-0.9,4.4
				c-1.3,4-2.5,8-3.2,12c0,0.3-0.2,0.6-0.3,0.8c-0.2,0.2-0.4,0.3-0.6,0.3c-1.8,0-3.7,0-5.5,0c-0.2,0-0.4-0.1-0.5-0.3
				c-0.1-0.2-0.2-0.5-0.1-0.8c0.6-3.9,1.8-7.8,3-11.7c0.5-1.6,0.3-2.4-0.6-2.4c-0.4,0-0.9,0.2-1.2,0.6c-0.4,0.4-0.7,1-1,1.8
				C192.4,307.9,191.2,311.8,190.6,315.7z"/>
		</g>
	</g>
</g>
</svg>
