<svg xmlns="http://www.w3.org/2000/svg" viewBox="0 0 678.87 324.21">
  <defs>
    <style>
      .cls-1 {
        font-size: 28px;
        font-family: Rubik-BlackItalic, Rubik;
        font-style: italic;
      }

      .cls-1, .cls-5 {
        fill: #b78b4e;
      }

      .cls-2 {
        letter-spacing: -0.02em;
      }

      .cls-3 {
        letter-spacing: -0.02em;
      }

      .cls-4 {
        letter-spacing: -0.02em;
      }

      .cls-6 {
        opacity: 0.5;
      }

      .cls-7 {
        fill: gray;
        stroke: #536b7f;
        stroke-miterlimit: 10;
        stroke-width: 4px;
        fill-rule: evenodd;
      }
    </style>
  </defs>
  <title>Asset 43</title>
  <g id="Layer_2" data-name="Layer 2">
    <g id="ST_Logo_Black_bckgrd">
      <g id="ST_Logo_onBlack">
        <text class="cls-1" transform="translate(267.58 314.74)"><tspan class="cls-2"> </tspan><tspan x="4.62" y="0">Anni</tspan><tspan class="cls-3" x="72.72" y="0">v</tspan><tspan x="89.85" y="0">ersar</tspan><tspan class="cls-4" x="171.36" y="0">y</tspan><tspan x="188.77" y="0" xml:space="preserve"> Edition</tspan></text>
        <g id="_20th" data-name="20th">
          <g id="_20" data-name="20">
            <g>
              <path id="_2" data-name="2" class="cls-5" d="M74.62,276.06c.81,0,1.37.49,1.67,1.48a6.23,6.23,0,0,1-.1,3.51,250.65,250.65,0,0,0-6.69,28.08,7.83,7.83,0,0,1-1.38,3.51,2.92,2.92,0,0,1-2.28,1.48H2.38a2.12,2.12,0,0,1-1.9-1.48,6.06,6.06,0,0,1-.39-3.51c1.07-6.41,2.5-12.81,4.16-19.21.25-.74.75-2.16,1.54-4.25a14.74,14.74,0,0,1,4.05-5.73c8-7.14,15.31-13.45,21.65-18.94s11.78-10.34,16.25-14.59a117.31,117.31,0,0,0,10.61-11.27A29.31,29.31,0,0,0,63.62,226l.69-2.59a7.38,7.38,0,0,0,.27-2.4,2.87,2.87,0,0,0-.69-1.76,2.73,2.73,0,0,0-2-.64,5.09,5.09,0,0,0-3,1,11.2,11.2,0,0,0-2.49,2.59,32.74,32.74,0,0,0-2,3.14c-.56,1.05-1,1.94-1.38,2.68a8.57,8.57,0,0,1-2.82,3.42,5.88,5.88,0,0,1-3,.83H26.49c-.67,0-1.12-.4-1.36-1.2a4.74,4.74,0,0,1,.17-2.87,132.13,132.13,0,0,1,7.81-19,75.68,75.68,0,0,1,9.42-14.5,37.16,37.16,0,0,1,11.33-9.23,29.52,29.52,0,0,1,13.75-3.24A31.07,31.07,0,0,1,80.7,185a24.7,24.7,0,0,1,9.86,8,27.28,27.28,0,0,1,4.77,13,43.35,43.35,0,0,1-2.07,17.55,68.45,68.45,0,0,1-6.5,14.6,95.42,95.42,0,0,1-9.44,13.12,146.55,146.55,0,0,1-11.95,12.37c-4.38,4.07-9.06,8.19-14,12.38Z"/>
              <path id="_0" data-name="0" class="cls-5" d="M145.72,183a26.5,26.5,0,0,1,13.55,3.51,26.85,26.85,0,0,1,9.73,9.7,34.44,34.44,0,0,1,4.4,14.69,52.88,52.88,0,0,1-2.16,18.66q-1.08,3.87-2.78,9.14c-1.13,3.51-2.31,7-3.51,10.62s-2.41,7.09-3.6,10.53-2.24,6.41-3.16,8.87q-3.75,10.17-7.91,18.84a76.33,76.33,0,0,1-9.16,15,38.62,38.62,0,0,1-11.57,9.88A31.2,31.2,0,0,1,114.3,316a26.19,26.19,0,0,1-23.53-13.48,34.24,34.24,0,0,1-4.11-15A56.94,56.94,0,0,1,89,268.67q1.05-3.69,2.67-8.87t3.43-10.53q1.82-5.36,3.68-10.62t3.28-9.14A162.54,162.54,0,0,1,110,210.85a77.06,77.06,0,0,1,9.43-14.69,39.92,39.92,0,0,1,11.59-9.7A30.32,30.32,0,0,1,145.72,183Zm-3.46,47.7a25.47,25.47,0,0,0,1.19-8.34c-.14-2.34-1.31-3.58-3.49-3.7-2.23.12-4.08,1.36-5.6,3.7a39.94,39.94,0,0,0-4,8.34q-1.44,3.9-3.1,8.71c-1.1,3.21-2.24,6.49-3.39,9.82s-2.26,6.64-3.31,9.91-1.93,6.21-2.66,8.8a23.94,23.94,0,0,0-1.28,8.62c.18,2.29,1.35,3.43,3.48,3.43s4-1.14,5.5-3.43a40,40,0,0,0,4.2-8.62q1.42-3.88,3.1-8.8c1.12-3.27,2.27-6.57,3.42-9.91s2.25-6.61,3.28-9.82S141.53,233.25,142.26,230.65Z"/>
            </g>
          </g>
          <g id="th">
            <g>
              <path id="t" class="cls-5" d="M168.21,303.87a3.3,3.3,0,0,0-.18,1.59.69.69,0,0,0,.76.59h2.55a.43.43,0,0,1,.43.34,1.55,1.55,0,0,1,0,.83,58.2,58.2,0,0,0-1.26,5.7,1.73,1.73,0,0,1-.34.82.73.73,0,0,1-.58.35h-2.88a8.23,8.23,0,0,1-2.78-.45,4.27,4.27,0,0,1-2.07-1.55,5.46,5.46,0,0,1-1-2.87,12.6,12.6,0,0,1,.63-4.48c.57-1.88,1.18-3.77,1.8-5.65h-2.21a.44.44,0,0,1-.43-.35,1.22,1.22,0,0,1,.06-.83c.56-1.75,1.12-3.51,1.64-5.26a2,2,0,0,1,.46-.83.94.94,0,0,1,.64-.34h2.22a65.36,65.36,0,0,0,1.65-7.09,1.66,1.66,0,0,1,.33-.83.75.75,0,0,1,.58-.35h4.9a.56.56,0,0,1,.49.35,1.33,1.33,0,0,1,.11.83,63.09,63.09,0,0,1-1.65,7.09h3.53a.43.43,0,0,1,.42.34,1.39,1.39,0,0,1,0,.83c-.51,1.75-1.07,3.51-1.64,5.26a2.25,2.25,0,0,1-.5.83.94.94,0,0,1-.64.35h-3.53C169.22,300.68,168.7,302.28,168.21,303.87Z"/>
              <path id="h" class="cls-5" d="M179.44,312.92a1.73,1.73,0,0,1-.34.82.73.73,0,0,1-.58.35h-5.46a.53.53,0,0,1-.48-.35,1.36,1.36,0,0,1-.12-.82c1.57-9.51,6.22-19,7.79-28.53a1.66,1.66,0,0,1,.33-.83.75.75,0,0,1,.58-.35h5.46a.56.56,0,0,1,.49.35,1.4,1.4,0,0,1,.11.83,72.92,72.92,0,0,1-2.32,9.35,10.23,10.23,0,0,1,2.28-2,4.66,4.66,0,0,1,2.48-.72,3.67,3.67,0,0,1,2.07.59,3.42,3.42,0,0,1,1.33,1.78,7.68,7.68,0,0,1,.31,3.07,19.38,19.38,0,0,1-1,4.43,86.21,86.21,0,0,0-3.16,12,1.62,1.62,0,0,1-.33.82.73.73,0,0,1-.58.35h-5.49a.53.53,0,0,1-.48-.35,1.36,1.36,0,0,1-.12-.82,82.66,82.66,0,0,1,3.05-11.7c.52-1.6.32-2.39-.62-2.39a1.68,1.68,0,0,0-1.24.61,4.64,4.64,0,0,0-1,1.78A82.61,82.61,0,0,0,179.44,312.92Z"/>
            </g>
          </g>
        </g>
        <g id="ST_Logo_onBlack-2" data-name="ST_Logo_onBlack" class="cls-6">
          <g id="Troopers">
            <path id="S" class="cls-7" d="M580.27,220.22l-12.93-.08c-1.42,0-2.83.05-4.23-.08,2.44-5.88,4.77-12,7.21-17.89a3.43,3.43,0,0,0-3.83-.9,2.5,2.5,0,0,0-1.09.58,13.3,13.3,0,0,0-.72,1.94c-3.52,8.94-7.58,18.69-11,27.34a3.23,3.23,0,0,0,2.19.68c3.72.2,7.16-.19,11.23.39a10.19,10.19,0,0,1,4.69,1.54,3.76,3.76,0,0,1,1.36,2.59c.21,2-1,4.67-1.92,7-2.81,7.18-5.63,14.16-8.57,21.34-1,2.43-1.92,4.88-2.84,7.14-2.79,6.85-8.06,9.74-13.53,11.25a41.93,41.93,0,0,1-12,1.41c-3.9-.07-9.81-.56-13.12-3.69a5.72,5.72,0,0,1-2-5.4,17.73,17.73,0,0,1,1.23-3.61c2.37-5.88,4.69-11.79,7.12-17.8a2.25,2.25,0,0,1,1-.07c5.23,0,10.65,0,15.94.1-2.14,5.47-4.73,11.52-7,17.33-.32.84-.76,2.06-.48,2.45s1.61.49,2.27.47a3.28,3.28,0,0,0,2.2-.55c.85-.82,1.3-2.51,1.77-3.66,3.3-8,6.3-15.81,9.61-24.06.49-1.22,1.5-3.34.79-3.88s-2.11-.47-3-.49c-2.86-.09-5.74,0-8.6-.27-4.77-.47-8.69-2.15-7.47-6.74a28.75,28.75,0,0,1,1.26-3.18c3-7.36,5.9-14.83,8.85-22.19,1.82-4.53,3.18-8.73,5.6-11.59a20.82,20.82,0,0,1,8.44-5.83,38.36,38.36,0,0,1,15.88-2.16,28.35,28.35,0,0,1,6.3,1c5.51,1.59,8.17,5,7,10a44.34,44.34,0,0,1-2.14,5.6C584,210.84,582.12,215.67,580.27,220.22Z"/>
            <path id="R" class="cls-7" d="M521.84,237c1.76,1,3.23,2,3.87,3.57s.1,3.52-.74,5.66c-.75,1.91-1.46,4.09-2.31,6.25-4,10.2-8,20.84-12,31-5.29-.06-10.73,0-15.89-.08,4.36-11.3,8.9-23.46,13.45-35,.63-1.59,1.71-3.78.72-4.55a4,4,0,0,0-2.25-.53,13.11,13.11,0,0,0-2,0q-7.77,20-15.47,40.05c-5.21,0-10.67,0-15.78,0,12.09-31.58,24.27-63,36.37-94.54,6.75,0,13.49.1,20.28,0a26.39,26.39,0,0,1,7,.61c2.81.75,4.64,2.13,5.5,4a9.39,9.39,0,0,1,0,6.69c-.15.47-.37.94-.54,1.42-2.47,6.83-5.27,13.84-8,20.77-.71,1.84-1.45,3.76-2.18,5.54a23.08,23.08,0,0,1-2.44,4.9C527.52,235.6,524.7,236.2,521.84,237Zm-7.13-7.4c1.19-.93,2.19-3.47,3-5.59s1.84-4.8,2.52-6.72c1.22-3.45,2.55-6.69,3.8-9.95.69-1.79,1.89-4.08.92-5.13s-3.12-.33-4.3-.57c-3.68,9.66-7.35,19.32-11.08,28.89C511.28,230.58,513.38,230.67,514.71,229.62Z"/>
            <path id="T_" class="cls-7" d="M429.17,160.22c-2.22,6.93-4.75,14-7.09,21q-60-.19-119.89-.28c-17.64,45-35.14,90.3-52.79,135.28-10.34,0-20.74,0-31.16-.08a19.07,19.07,0,0,1-2,0Q242.61,248.66,268.9,181a12.35,12.35,0,0,0-2.58,0c-4.35,0-8.86-.13-13.29-.08a26,26,0,0,1-2.65,0c-.85-.07-1.68-.09-2.52-.08-7,0-14.09-.07-21.16-.05-14.1,0-28.24,0-42.26-.13l7.12-20.94Q310.36,160,429.17,160.22Z"/>
            <path id="E" class="cls-7" d="M504.29,188.45c-1.47,4.21-3.25,8.57-4.88,12.77-3.39,0-6.76,0-10.17,0-3,7.91-6.1,15.72-9.11,23.64,3.28.1,6.86,0,10.27.07-1.63,4.28-3.26,8.54-4.93,12.76-3.39,0-6.76,0-10.17,0q-6.3,16.29-12.62,32.56c3.48.11,6.86,0,10.33.09-1.66,4.22-3.3,8.49-4.94,12.75-8.71,0-17.4,0-26.12-.07q18.26-47.22,36.45-94.57Q491.35,188.44,504.29,188.45Z"/>
            <path id="P" class="cls-7" d="M423.73,259.83c-2.82,7.44-5.67,14.8-8.47,22.27-5.22.06-10.43.15-15.68.16,12-31.63,24.09-63.11,36.1-94.74,6.3,0,12.9-.14,19.31-.24a24.42,24.42,0,0,1,6.9.58c4.51,1.25,6.2,4.4,6.2,8s-2,8.27-3.48,12.3c-3.95,10.59-8.14,21.14-12.12,31.61-.82,2.17-1.57,4.33-2.36,6.42-3.19,8.49-8.48,12.58-15.49,13.36C431.16,260,427.44,259.72,423.73,259.83Zm10.87-16.12a13.13,13.13,0,0,0,2.43-4.38c.72-1.74,1.43-3.59,2-5.23,1.2-3.34,2.81-7.26,4-10.58,1.87-5.15,4-10.58,6-15.83a24.19,24.19,0,0,0,1-2.51c.36-1.43,0-2.62-1.54-2.77a13.77,13.77,0,0,0-2.92.07c-2.55,7-5.38,14-8,21.11s-5.48,14.17-8,21.24C431.15,244.8,433.33,244.88,434.6,243.71Z"/>
            <path id="O" class="cls-7" d="M420,187.05c3.09.83,4.74,2.26,5.39,4.49,1.22,4.14-1.52,10.26-3.55,15.66-3,8.09-6.31,16.51-9.36,24.38-4.13,10.63-8.25,21.61-12.52,32.42a85.13,85.13,0,0,1-3.27,7.88,18.3,18.3,0,0,1-4.31,5.7c-3.38,2.85-7.34,3.89-12.16,4.26-2.22.17-4.57.2-7,.15a36.41,36.41,0,0,1-7.52-.84c-3.08-.73-5-2.15-5.64-4.29s-.19-4.67.77-7.49c3.77-11.07,8.41-22,12.36-32.65,2-5.32,4.19-10.79,6.23-16.22s4.18-11,6.25-16.28,4.38-10.43,7.65-13.43,7.31-4.1,12-4.54a53.19,53.19,0,0,1,7-.23c1.09,0,2.4.1,3.7.26A28.25,28.25,0,0,1,420,187.05Zm-18,16c-.61,1.44-1.21,3-1.71,4.33-2.23,6.07-4.55,11.66-6.77,17.63-3.34,9-6.88,17.62-10.14,26.49-1.55,4.22-3.34,8.94-5.08,13.18-.6,1.48-1.35,3.18-.59,4,1,1.05,3.09.42,3.76-.08,1.75-1.31,2.94-5.4,4.05-8.26,3.36-8.7,6.11-16.07,9.55-24.92,4-10.27,8-20.73,11.92-31,.26-.68.64-1.32.86-2,.56-1.75.57-3.22-1.16-3.53C404.15,198.39,403.17,200.44,402.05,203.05Z"/>
            <path id="O-2" data-name="O" class="cls-7" d="M377.33,187.54s0,0,.07,0c5.83,1.81,5.76,6.61,4,12.32-.78,2.57-1.93,5.2-3,8s-2.14,5.54-3.11,8.11c-4.38,11.51-8.32,21.71-12.52,32.6-2.1,5.44-4.11,10.84-6.27,16.33a84.07,84.07,0,0,1-3.34,7.73,16.39,16.39,0,0,1-4.38,5.55,17.6,17.6,0,0,1-5.68,3,27.52,27.52,0,0,1-6.58,1.07,66.2,66.2,0,0,1-7.09.14,34.4,34.4,0,0,1-7.59-1c-3-.79-4.68-2.31-5.21-4.5s0-4.76,1-7.64c1.87-5.48,4.05-11,6.11-16.21,2.19-5.55,4.29-11.22,6.27-16.32,4.19-10.82,8.25-21.72,12.51-32.6,2.14-5.47,4.41-10.29,7.75-13.22s7.4-3.91,12.13-4.33a52,52,0,0,1,7.09-.14A31.3,31.3,0,0,1,377.33,187.54Zm-16.49,12.31a11.06,11.06,0,0,0-2.1,3.55c-.62,1.41-1.21,3.06-1.73,4.38-2.37,6.11-4.41,11.82-6.73,17.7-3.45,8.75-6.75,17.53-10.18,26.42-1.68,4.36-3.31,8.87-5,13.25-.6,1.52-1.4,3.13-.45,3.93,1.25,1.06,3.2.28,4-.47a11.45,11.45,0,0,0,2.2-4c1.62-4.11,3.26-8.58,4.77-12.46,4.28-11,8.59-22.31,12.74-33.23,1.77-4.69,3.71-9.9,5.58-14.49.85-2.11,2-4.72-.31-5.19A3.16,3.16,0,0,0,360.84,199.85Z"/>
            <path id="R-2" data-name="R" class="cls-7" d="M319,234.89c2,1.08,4,2.65,4.21,4.68.15,1.52-.67,3.23-1.31,5.06-.3.86-.57,1.78-.9,2.65-4.3,11.24-8.88,23.07-13.11,34a1.92,1.92,0,0,1-1,.08c-4.88,0-10,0-14.95-.06,4.47-11.3,9-23.77,13.57-35.32.53-1.34,1.68-3.38.66-4.21s-3.26-.42-4.3-.58q-7.74,20.07-15.49,40.11c-5.24,0-10.49,0-15.78-.05Q288.8,234,307,186.79c.26-.16.58-.06.85-.06,6.44,0,13.17,0,19.75,0a24.46,24.46,0,0,1,7.42.81c5,1.58,6.4,5.77,4.71,10.66s-3.82,10.14-5.63,14.82c-.94,2.41-1.93,4.9-2.87,7.37s-1.87,5-2.88,7.25a11,11,0,0,1-3.94,5.16A19.17,19.17,0,0,1,319,234.89Zm-6.8-7.64a7.79,7.79,0,0,0,1.52-2.56c.43-1,.93-2.1,1.29-3.11,2.22-6.09,4.57-11.81,6.74-17.71.19-.53.48-1,.65-1.55.42-1.31.15-2.41-1.08-2.74s-2.48.1-3.47-.05c-3.6,9.7-7.48,19.32-11,28.92C308.63,228.43,310.81,228.51,312.17,227.25Z"/>
          </g>
          <g id="Starship">
            <path id="P-2" data-name="P" class="cls-7" d="M427.18,101.45c-2.87,7.46-5.73,14.91-8.58,22.41-5.23,0-10.44.12-15.67.16Q421,76.72,439.13,29.49a1.52,1.52,0,0,1,.79-.08l18.78-.24a27.2,27.2,0,0,1,5.06.25c.59.09,1.19.3,1.83.38a6.88,6.88,0,0,1,1.55.65c5.13,2.47,5.18,7.56,3.14,13.55-.35,1-.83,2.08-1.19,3.15s-.75,2.17-1.15,3.21c-4,10.36-8.08,21-12.09,31.33-.83,2.14-1.55,4.3-2.34,6.36a23.32,23.32,0,0,1-6.31,9.51,17.24,17.24,0,0,1-9.18,3.68C434.56,101.63,430.87,101.32,427.18,101.45Zm10.76-16a11.75,11.75,0,0,0,2.45-4.25c.71-1.74,1.41-3.6,2-5.23,3.28-8.83,6.59-17.39,10-26.19.82-2.13,2.24-4.88-.07-5.52-1.12-.31-2.33.1-3.24,0-2.75,7-5.37,14.1-8.09,21.15s-5.45,14.08-8,21.11C434.53,86.46,436.65,86.58,437.94,85.47Z"/>
            <path id="I" class="cls-7" d="M432.31,29.54c-12,31.44-24.22,63-36.27,94.57-4.58,0-9.21,0-13.84,0a11.63,11.63,0,0,1-1.87,0q18.18-47.17,36.3-94.49C421.83,29.48,427.08,29.54,432.31,29.54Z"/>
            <path id="S_" class="cls-7" d="M8.52,132.91l.13-.38a4.38,4.38,0,0,0,.94,0c10.83,0,21.53,0,32.22.08s21.38,0,32.23,0c10.54.05,21.21.11,32.22.08,5.23,0,10.69,0,16.1,0,2.77,0,5.52.16,8.08.09a9.7,9.7,0,0,0,6.59-3c1.76-1.89,2.88-4.91,4.16-7.88s2.58-6,3.74-8.72c1.23-2.92,2.32-5.78,3.7-8.8A20.7,20.7,0,0,0,150,99.88c.32-1.64.32-3-.69-3.72-1.17-.88-2.88-.82-4.16-.83-9.47,0-19.06,0-28.25-.09-5.31,0-10.67.12-16.13,0a18.34,18.34,0,0,1-8.67-2.35A10.11,10.11,0,0,1,87.58,87c-1.25-4.66,0-10.84,2.18-17.18,1.07-3.15,2.35-6.11,3.6-9,3.75-8.72,7.56-17.7,11.2-26.31A88.9,88.9,0,0,1,113,18.82C119.26,9.66,126.75,3.36,137,2.22A69.17,69.17,0,0,1,145,2c24.27.21,48.47,0,72.59.21,2.67,0,5.36,0,8,0,13.48-.08,26.88,0,40.33.06q32.25.13,64.51.12c.16.17-.06.52-.13.73-1,3-2.1,6.17-3.18,9.33-1,2.92-1.93,6-3,8.75-.05.13,0,.43-.27.44-16.12-.06-32.37,0-48.43-.09-8,0-16-.15-24.05-.08-2.67,0-5.33,0-8,0-16-.07-32.15,0-48.12-.11-10.47,0-21.39-.09-32-.08-4,0-8.07,0-12,0a17.16,17.16,0,0,0-3.92.2A8.86,8.86,0,0,0,141.53,26a33.16,33.16,0,0,0-2,4.19c-1.89,4.49-3.6,8.56-5.54,13.14-1.12,2.65-2.9,6.75-1.95,8.68.52,1.05,2.45,1.56,3.78,1.59s2.81,0,4,0c13.48,0,26.71.1,40.1,0a19.21,19.21,0,0,1,8.58,1.74c2.63,1.33,4.45,2.95,5.41,5.33,2.19,5.46.18,13.49-2.85,21.22-.59,1.51-1.22,3-1.82,4.47-3.61,8.86-7.38,17.7-11.09,26.34-2.62,6.11-4.9,11.91-7.65,16.92-4.1,7.46-9.38,13.89-15.31,17.69a29.08,29.08,0,0,1-13.76,4.6c-2.53.18-5.22.07-8,.06-43-.18-86.34-.11-129.36-.3Q6.41,142.26,8.52,132.91Z"/>
            <path id="H-2" data-name="H" class="cls-7" d="M409.35,29.36s0,0,0,.07Q391.29,76.69,373.19,124c-5.26-.1-10.64,0-15.76-.1q8.71-22.69,17.48-45.28c-1.88-.09-3.69,0-5.54-.06q-8.76,22.73-17.52,45.39c-3.92,0-7.85-.07-11.82,0-1.29,0-2.56,0-3.82-.06q18.14-47.31,36.32-94.55c5.25.08,10.43,0,15.66.06-4.68,12.16-9.33,24.34-14.05,36.4,1.88.08,3.7,0,5.54.05,3.35-8.8,7.08-18.18,10.54-27.3.79-2.07,1.72-4.45,2.61-6.8a10.75,10.75,0,0,1,.88-2.24c.24-.22,1.29-.07,1.92-.06C400.07,29.4,405,29.3,409.35,29.36Z"/>
            <path id="S-2" data-name="S" class="cls-7" d="M354.34,60.45c-5.65,0-11.36-.17-17-.23,2.32-6.14,4.49-12,6.82-18.15a3.47,3.47,0,0,0-3.94-.75,2.77,2.77,0,0,0-1,.72,10.8,10.8,0,0,0-.68,1.84c-3.28,8.93-7,18.34-10.23,27.46a7.6,7.6,0,0,0,4,.7c1.29,0,2.55,0,3.82,0,2.57.08,5.14,0,8,1,3.16,1.07,4,3,3.37,5.94A38.19,38.19,0,0,1,346,83.23c-2.56,7.27-5.47,14.3-8.18,21.77-.54,1.49-1.06,3-1.62,4.42s-1.06,2.92-1.64,4.29a15.78,15.78,0,0,1-4.59,6c-3.6,2.93-8,4.31-12.69,5a46.81,46.81,0,0,1-7.39.32,28.41,28.41,0,0,1-8.12-1.16c-3.27-1-5.3-2.6-6.28-4.51a5.7,5.7,0,0,1-.58-3.51,23.22,23.22,0,0,1,1.35-4.33c2-5.77,4.45-11.47,6.53-17.42q8.34.06,16.77.26c-2.2,5.75-4.35,11.7-6.63,17.57-.39,1-.63,2.17-.3,2.44a3.89,3.89,0,0,0,2.28.42,3.38,3.38,0,0,0,2-.5c.76-.73,1.24-2.34,1.7-3.62s1.08-2.84,1.55-4c1.08-2.74,1.9-5.31,3-8.2,1.5-3.84,3-8.06,4.61-12.15.58-1.5,1.17-3.35.66-3.86s-1.8-.5-2.65-.55c-2.58-.15-5.23,0-7.74-.21-3.7-.26-8.28-1.37-8.81-4.71a10.3,10.3,0,0,1,1-4.69c1.91-4.88,3.83-9.92,5.55-14.74,1.18-3.29,2.57-6.55,3.71-9.86,1.21-3.5,2.41-6.81,4-9.16,3.16-4.65,8.11-7,13.07-8.16a37.6,37.6,0,0,1,8.15-.83,33.35,33.35,0,0,1,9.16.92c3.36.93,5.7,2.51,6.89,4.42,1.3,2.08,1.32,4.47.24,7.66C359.05,48.35,356.44,54.35,354.34,60.45Z"/>
            <path id="R-3" data-name="R" class="cls-7" d="M297,77.07c2.22,1.27,4.2,2.94,4.14,5.38,0,1.47-.83,3-1.34,4.45-.13.38-.14.79-.27,1.15-.38,1.11-.9,2.26-1.35,3.45-4,10.48-8.39,21.72-12.33,32.07-3.92.06-7.93,0-11.94,0a38.91,38.91,0,0,1-3.9,0c4.43-11.27,9-23.71,13.54-35.26.55-1.39,1.7-3.44.63-4.29s-3.23-.32-4.24-.55c-5.13,13.42-10.3,26.73-15.44,40.12-5.17,0-10.57,0-15.66-.06q18.13-47.34,36.33-94.55c6.66.11,13.5,0,20.28,0a27,27,0,0,1,7.31.77c5.12,1.48,6.58,5.7,4.93,10.55s-3.74,10.16-5.59,14.85c-1.91,4.86-3.81,10.23-5.76,14.66-1.08,2.46-2.22,4.14-3.91,5.24A17.52,17.52,0,0,1,297,77.07Zm-7.36-7.23a6,6,0,0,0,2.13-3c1.2-3,2.58-6.59,3.72-9.56,1.54-4,2.87-7.52,4.27-11.32.2-.53.5-1,.65-1.56.4-1.36.1-2.37-1.22-2.66-1.08-.24-2.3.1-3.3-.06-3.65,9.69-7.35,19.28-11,28.91A8.27,8.27,0,0,0,289.61,69.84Z"/>
            <path id="T-2" data-name="T" class="cls-7" d="M246.4,29.39c-1.8,4.26-3.61,8.52-5.38,12.84-4.4.09-8.9,0-13.32,0q-15.63,40.88-31.33,81.63c-5.23,0-10.42,0-15.66-.06Q196.34,83,212,42.25c-4.89-.13-10.05,0-15.06-.1,1.79-4.32,3.61-8.58,5.4-12.9,14.61,0,29.25.08,43.87.09C246.33,29.38,246.41,29.29,246.4,29.39Z"/>
            <path id="A" class="cls-7" d="M272.08,29.38c.06,0,0,.06,0,.05-9.14,31.44-18.51,63-27.64,94.43a7.63,7.63,0,0,1-2,0c-4.47,0-9.21.07-13.78,0,2.24-6.56,4.56-13.4,6.73-19.78-1.82-.14-3.88,0-5.82-.09-2.9,6.66-5.85,13.23-8.77,19.86-4.9,0-9.8,0-14.72,0q22.4-47.25,44.77-94.52C257.89,29.3,265.15,29.29,272.08,29.38ZM249.18,60c-.69,1.76-1.54,3.45-2.3,5.19-3.79,8.74-7.72,17.41-11.54,26.07,1.49,0,3,0,4.43,0,2.35-7,4.71-14,7.1-21s4.63-14,6.91-20.67C252.32,53.08,250.58,56.44,249.18,60Z"/>
          </g>
        </g>
      </g>
    </g>
  </g>
</svg>
