<svg xmlns="http://www.w3.org/2000/svg" viewBox="0 0 753 456">
  <defs>
    <style>
      .cls-1 {
        font-size: 28px;
        font-family: Rubik-BlackItalic, Rubik;
        font-style: italic;
      }

      .cls-1, .cls-5 {
        fill: #b78b4e;
      }

      .cls-2 {
        letter-spacing: -0.02em;
      }

      .cls-3 {
        letter-spacing: -0.02em;
      }

      .cls-4 {
        letter-spacing: -0.02em;
      }

      .cls-6 {
        opacity: 0.5;
      }

      .cls-7 {
        fill: #fff;
        stroke: #536b7f;
        stroke-miterlimit: 10;
        stroke-width: 4px;
        fill-rule: evenodd;
      }
    </style>
  </defs>
  <title>Asset 37</title>
  <g id="Layer_2" data-name="Layer 2">
    <g id="ST_Logo_Black_bckgrd">
      <g id="ST_Logo_onBlack">
        <rect id="Black_bckgrd" width="753" height="456"/>
        <text class="cls-1" transform="translate(306.71 377.52)"><tspan class="cls-2"> </tspan><tspan x="4.62" y="0">Anni</tspan><tspan class="cls-3" x="72.72" y="0">v</tspan><tspan x="89.85" y="0">ersar</tspan><tspan class="cls-4" x="171.36" y="0">y</tspan><tspan x="188.77" y="0" xml:space="preserve"> Edition</tspan></text>
        <g id="_20th" data-name="20th">
          <g id="_20" data-name="20">
            <g>
              <path id="_2" data-name="2" class="cls-5" d="M113.76,338.85c.8,0,1.36.49,1.66,1.48a6.22,6.22,0,0,1-.09,3.51,248.54,248.54,0,0,0-6.7,28.08,7.92,7.92,0,0,1-1.37,3.51A3,3,0,0,1,105,376.9H41.52a2.13,2.13,0,0,1-1.91-1.47,6.09,6.09,0,0,1-.39-3.51c1.08-6.41,2.5-12.81,4.16-19.22.25-.74.75-2.15,1.54-4.25a14.71,14.71,0,0,1,4-5.72c8-7.14,15.31-13.46,21.66-18.94S82.4,313.45,86.87,309.2a118.77,118.77,0,0,0,10.62-11.27,29.19,29.19,0,0,0,5.26-9.15c.23-.86.47-1.72.7-2.58a7.38,7.38,0,0,0,.26-2.4A2.73,2.73,0,0,0,103,282a2.7,2.7,0,0,0-2-.65,5,5,0,0,0-3,1A10.81,10.81,0,0,0,95.46,285a28.81,28.81,0,0,0-1.95,3.14c-.57,1.05-1,1.94-1.39,2.68a8.37,8.37,0,0,1-2.82,3.41,5.76,5.76,0,0,1-3,.83H65.62c-.66,0-1.12-.39-1.36-1.2a4.71,4.71,0,0,1,.17-2.86,132.13,132.13,0,0,1,7.81-19,75.37,75.37,0,0,1,9.42-14.5A37.38,37.38,0,0,1,93,248.23,29.61,29.61,0,0,1,106.75,245a30.9,30.9,0,0,1,13.08,2.77,24.8,24.8,0,0,1,9.87,8,27.38,27.38,0,0,1,4.76,13,43.37,43.37,0,0,1-2.07,17.55,67.69,67.69,0,0,1-6.5,14.6,95.33,95.33,0,0,1-9.44,13.11,146.53,146.53,0,0,1-11.94,12.38q-6.58,6.11-14,12.38Z"/>
              <path id="_0" data-name="0" class="cls-5" d="M184.85,245.74a26.47,26.47,0,0,1,13.55,3.51,26.77,26.77,0,0,1,9.73,9.7,34.16,34.16,0,0,1,4.4,14.68,52.83,52.83,0,0,1-2.16,18.66c-.72,2.59-1.64,5.64-2.78,9.15s-2.31,7.05-3.51,10.62-2.4,7.08-3.59,10.53-2.25,6.41-3.17,8.87q-3.73,10.16-7.91,18.84a76.33,76.33,0,0,1-9.16,15,38.64,38.64,0,0,1-11.57,9.88,31.18,31.18,0,0,1-15.24,3.6,26.19,26.19,0,0,1-23.54-13.48,34.38,34.38,0,0,1-4.11-15,56.9,56.9,0,0,1,2.35-18.84q1-3.69,2.66-8.87t3.44-10.53q1.8-5.35,3.67-10.62t3.28-9.15a162.27,162.27,0,0,1,7.94-18.66A76.78,76.78,0,0,1,158.55,259a39.68,39.68,0,0,1,11.6-9.7A30.25,30.25,0,0,1,184.85,245.74Zm-3.45,47.7a25.7,25.7,0,0,0,1.18-8.34c-.13-2.35-1.31-3.58-3.49-3.71-2.22.13-4.08,1.36-5.6,3.71a39.94,39.94,0,0,0-4,8.34q-1.42,3.9-3.09,8.71T163,312c-1.15,3.33-2.26,6.64-3.3,9.91s-1.94,6.21-2.67,8.8a24.11,24.11,0,0,0-1.28,8.62c.18,2.29,1.36,3.43,3.49,3.43s3.95-1.14,5.49-3.43a40.27,40.27,0,0,0,4.2-8.62c.95-2.59,2-5.53,3.1-8.8l3.42-9.91q1.72-5,3.29-9.82C179.78,298.94,180.67,296,181.4,293.44Z"/>
            </g>
          </g>
          <g id="th">
            <g>
              <path id="t" class="cls-5" d="M207.34,366.66a3.43,3.43,0,0,0-.18,1.59.69.69,0,0,0,.76.58h2.55a.44.44,0,0,1,.43.35,1.46,1.46,0,0,1,0,.83,58.2,58.2,0,0,0-1.26,5.7,1.77,1.77,0,0,1-.34.82.75.75,0,0,1-.57.35h-2.89a8,8,0,0,1-2.78-.46,4.3,4.3,0,0,1-2.07-1.54,5.46,5.46,0,0,1-1-2.87,12.64,12.64,0,0,1,.64-4.48c.56-1.89,1.17-3.77,1.79-5.66h-2.21a.42.42,0,0,1-.43-.34,1.35,1.35,0,0,1,.06-.83c.57-1.75,1.13-3.51,1.64-5.26a1.86,1.86,0,0,1,.47-.83.92.92,0,0,1,.64-.35h2.21a62.09,62.09,0,0,0,1.65-7.09,1.77,1.77,0,0,1,.34-.82.75.75,0,0,1,.57-.35h4.9a.55.55,0,0,1,.49.35,1.3,1.3,0,0,1,.11.82,62.09,62.09,0,0,1-1.65,7.09h3.53a.43.43,0,0,1,.42.35,1.39,1.39,0,0,1,0,.83c-.51,1.75-1.07,3.51-1.63,5.26a2.41,2.41,0,0,1-.51.83.91.91,0,0,1-.64.34h-3.53C208.36,363.47,207.83,365.06,207.34,366.66Z"/>
              <path id="h" class="cls-5" d="M218.57,375.71a1.77,1.77,0,0,1-.34.82.75.75,0,0,1-.57.35H212.2a.55.55,0,0,1-.49-.35,1.3,1.3,0,0,1-.11-.82c1.57-9.51,6.21-19,7.78-28.54a1.67,1.67,0,0,1,.34-.82.74.74,0,0,1,.57-.35h5.46a.55.55,0,0,1,.49.35,1.3,1.3,0,0,1,.11.82,71,71,0,0,1-2.32,9.36,9.74,9.74,0,0,1,2.28-2,4.67,4.67,0,0,1,2.49-.72,3.64,3.64,0,0,1,2.07.59,3.4,3.4,0,0,1,1.32,1.78,7.68,7.68,0,0,1,.31,3.07,19.3,19.3,0,0,1-.94,4.43,82.83,82.83,0,0,0-3.16,12,1.77,1.77,0,0,1-.34.82.75.75,0,0,1-.58.35H222a.55.55,0,0,1-.49-.35,1.3,1.3,0,0,1-.11-.82,82.61,82.61,0,0,1,3-11.7c.52-1.6.32-2.4-.61-2.4a1.72,1.72,0,0,0-1.25.61,4.55,4.55,0,0,0-1,1.79A82.66,82.66,0,0,0,218.57,375.71Z"/>
            </g>
          </g>
        </g>
        <g id="ST_Logo_onBlack-2" data-name="ST_Logo_onBlack" class="cls-6">
          <g id="Troopers">
            <path id="S" class="cls-7" d="M619.4,283c-4.28,0-8.6-.06-12.93-.08-1.42,0-2.83.05-4.23-.08,2.45-5.89,4.78-12,7.22-17.9a3.46,3.46,0,0,0-3.84-.89,2.4,2.4,0,0,0-1.08.58,12.19,12.19,0,0,0-.73,1.94c-3.52,8.94-7.58,18.68-11,27.33a3.2,3.2,0,0,0,2.2.69c3.71.19,7.15-.19,11.22.39a10.19,10.19,0,0,1,4.69,1.54,3.74,3.74,0,0,1,1.36,2.59c.21,2-1,4.67-1.92,7-2.81,7.18-5.63,14.16-8.56,21.34-1,2.43-1.93,4.88-2.85,7.14-2.79,6.85-8,9.74-13.53,11.25a41.93,41.93,0,0,1-12,1.41c-3.9-.07-9.81-.56-13.12-3.7a5.72,5.72,0,0,1-2-5.39,17.53,17.53,0,0,1,1.23-3.61c2.38-5.88,4.69-11.79,7.13-17.81a2.35,2.35,0,0,1,1-.06c5.23,0,10.65,0,15.94.1-2.14,5.47-4.73,11.51-7,17.33-.32.84-.76,2.06-.48,2.44s1.61.5,2.27.48a3.23,3.23,0,0,0,2.2-.56c.85-.81,1.3-2.5,1.78-3.65,3.29-8,6.29-15.81,9.61-24.06.48-1.22,1.49-3.35.78-3.88s-2.11-.47-3-.5c-2.87-.08-5.74,0-8.61-.26-4.77-.47-8.69-2.15-7.47-6.75a30.39,30.39,0,0,1,1.26-3.18c3-7.35,5.9-14.82,8.86-22.19,1.81-4.52,3.17-8.72,5.6-11.58a20.79,20.79,0,0,1,8.43-5.83,38.2,38.2,0,0,1,15.88-2.16,27.78,27.78,0,0,1,6.3,1c5.51,1.59,8.18,5,7,10A41.48,41.48,0,0,1,625,269C623.15,273.63,621.25,278.46,619.4,283Z"/>
            <path id="R" class="cls-7" d="M561,299.81c1.76,1.05,3.23,2,3.87,3.56s.1,3.53-.74,5.67c-.75,1.91-1.46,4.09-2.31,6.25-4,10.2-8,20.84-12,31-5.28-.06-10.73,0-15.89-.08,4.36-11.3,8.9-23.46,13.45-35,.63-1.59,1.71-3.78.72-4.55a4,4,0,0,0-2.24-.53,14.77,14.77,0,0,0-2,0q-7.77,20-15.47,40.06c-5.21,0-10.66,0-15.78-.05,12.09-31.57,24.27-63,36.37-94.53,6.75,0,13.49.1,20.29,0a26,26,0,0,1,7,.61c2.8.74,4.64,2.12,5.5,4a9.42,9.42,0,0,1,0,6.7c-.15.47-.36.94-.54,1.41-2.47,6.83-5.27,13.85-8,20.78-.71,1.84-1.45,3.76-2.17,5.53a23.91,23.91,0,0,1-2.44,4.91C566.65,298.39,563.83,299,561,299.81Zm-7.13-7.4c1.2-.94,2.2-3.47,3-5.6s1.85-4.79,2.52-6.71c1.22-3.45,2.55-6.69,3.8-10,.7-1.79,1.89-4.09.92-5.13s-3.12-.33-4.3-.58c-3.67,9.66-7.35,19.33-11.07,28.89C550.42,293.36,552.51,293.45,553.84,292.41Z"/>
            <path id="T_" class="cls-7" d="M468.31,223c-2.23,6.94-4.76,14-7.1,21q-60-.2-119.89-.28c-17.64,45-35.13,90.29-52.79,135.27q-15.51,0-31.15-.07a19.22,19.22,0,0,1-2,0Q281.74,311.46,308,243.83a11.81,11.81,0,0,0-2.59-.05c-4.35,0-8.86-.13-13.28-.08a26.23,26.23,0,0,1-2.66,0c-.85-.08-1.67-.09-2.51-.09-7.05,0-14.1-.06-21.17,0-14.1,0-28.24-.05-42.26-.13l7.13-20.94Q349.49,222.75,468.31,223Z"/>
            <path id="E" class="cls-7" d="M543.42,251.23c-1.47,4.22-3.25,8.58-4.88,12.78-3.38,0-6.76,0-10.16,0-3,7.91-6.1,15.71-9.12,23.64,3.29.09,6.86,0,10.28.07-1.64,4.27-3.27,8.54-4.94,12.75-3.38,0-6.76,0-10.16,0q-6.32,16.29-12.63,32.56c3.48.11,6.86,0,10.33.08q-2.49,6.35-4.93,12.76c-8.72,0-17.41,0-26.13-.08q18.26-47.21,36.45-94.56Q530.49,251.23,543.42,251.23Z"/>
            <path id="P" class="cls-7" d="M462.86,322.62c-2.82,7.43-5.67,14.8-8.47,22.26-5.22.07-10.43.16-15.67.17,12-31.64,24.08-63.11,36.09-94.75,6.31,0,12.9-.13,19.31-.23a24.42,24.42,0,0,1,6.9.58c4.52,1.24,6.21,4.4,6.21,8s-2,8.28-3.48,12.31c-4,10.58-8.15,21.14-12.12,31.61-.82,2.16-1.58,4.33-2.36,6.42-3.2,8.49-8.49,12.58-15.5,13.36C470.29,322.76,466.58,322.5,462.86,322.62Zm10.87-16.12a13.41,13.41,0,0,0,2.44-4.38c.71-1.74,1.43-3.59,2-5.23,1.2-3.34,2.82-7.27,4-10.58,1.87-5.15,4-10.59,6-15.84a21.26,21.26,0,0,0,1-2.5c.36-1.43,0-2.63-1.54-2.78a15.27,15.27,0,0,0-2.92.07c-2.55,7-5.38,14-8,21.12s-5.48,14.17-8,21.24C470.29,307.59,472.46,307.67,473.73,306.5Z"/>
            <path id="O" class="cls-7" d="M459.17,249.83c3.09.84,4.74,2.26,5.4,4.5,1.21,4.14-1.53,10.26-3.56,15.65-3,8.09-6.31,16.52-9.36,24.39C447.52,305,443.4,316,439.13,326.79a85.13,85.13,0,0,1-3.27,7.88,18.27,18.27,0,0,1-4.3,5.69c-3.39,2.86-7.35,3.9-12.16,4.27-2.22.17-4.57.2-7,.15a36.5,36.5,0,0,1-7.52-.85c-3.07-.72-5-2.15-5.64-4.28s-.19-4.67.77-7.49c3.77-11.07,8.41-22,12.36-32.66,2-5.32,4.19-10.79,6.23-16.22s4.18-11,6.25-16.27,4.38-10.43,7.65-13.43,7.32-4.1,12-4.55a55.12,55.12,0,0,1,7-.22c1.08,0,2.39.1,3.7.25A29.59,29.59,0,0,1,459.17,249.83Zm-18,16c-.61,1.43-1.21,3-1.71,4.33-2.23,6.07-4.55,11.66-6.77,17.63-3.34,9-6.88,17.62-10.14,26.49-1.55,4.22-3.34,8.94-5.08,13.18-.6,1.48-1.35,3.18-.59,4,1,1,3.09.41,3.76-.08,1.75-1.31,3-5.4,4.05-8.27,3.36-8.7,6.11-16.06,9.55-24.91,4-10.27,8-20.73,11.92-31,.26-.68.64-1.32.86-2,.56-1.75.57-3.23-1.16-3.54C443.28,261.18,442.3,263.23,441.18,265.84Z"/>
            <path id="O-2" data-name="O" class="cls-7" d="M416.47,250.33s0-.05.07,0c5.82,1.81,5.75,6.61,4,12.32-.78,2.57-1.93,5.19-3,8s-2.13,5.53-3.11,8.11c-4.37,11.51-8.32,21.71-12.52,32.6-2.1,5.44-4.11,10.84-6.26,16.32a81.59,81.59,0,0,1-3.35,7.74,16.5,16.5,0,0,1-4.37,5.55,17.84,17.84,0,0,1-5.69,3,27.94,27.94,0,0,1-6.58,1.07,63.61,63.61,0,0,1-7.08.13,33.79,33.79,0,0,1-7.6-1c-3-.79-4.68-2.31-5.21-4.5s0-4.76,1-7.64c1.87-5.48,4.06-11,6.11-16.21,2.19-5.55,4.29-11.22,6.27-16.32,4.2-10.82,8.25-21.72,12.51-32.61,2.15-5.46,4.41-10.28,7.76-13.21s7.39-3.91,12.12-4.34a53.65,53.65,0,0,1,7.09-.13A31.37,31.37,0,0,1,416.47,250.33ZM400,262.64a11,11,0,0,0-2.1,3.55c-.62,1.41-1.21,3.06-1.72,4.38-2.37,6.11-4.42,11.81-6.74,17.7-3.45,8.75-6.75,17.53-10.17,26.42-1.68,4.35-3.32,8.87-5.05,13.25-.59,1.51-1.39,3.13-.45,3.93,1.25,1.06,3.21.28,4-.47a11.45,11.45,0,0,0,2.2-4c1.62-4.12,3.26-8.58,4.78-12.46,4.27-11,8.59-22.32,12.73-33.24,1.78-4.68,3.72-9.89,5.58-14.49.86-2.11,2-4.71-.3-5.19A3.21,3.21,0,0,0,400,262.64Z"/>
            <path id="R-2" data-name="R" class="cls-7" d="M358.11,297.67c2,1.09,4,2.65,4.2,4.69.15,1.52-.66,3.23-1.31,5.06-.3.86-.57,1.78-.9,2.65-4.3,11.24-8.87,23.07-13.11,34a1.78,1.78,0,0,1-1,.09c-4.89,0-10,0-14.95-.06,4.46-11.31,9-23.78,13.56-35.32.53-1.35,1.68-3.38.66-4.22s-3.26-.42-4.3-.57q-7.74,20.06-15.48,40.11c-5.25,0-10.5,0-15.79,0q18.21-47.24,36.42-94.46c.25-.16.58-.06.85-.06,6.43-.05,13.16,0,19.74,0a24.12,24.12,0,0,1,7.42.81c5,1.58,6.4,5.77,4.72,10.66s-3.82,10.14-5.64,14.82c-.94,2.41-1.93,4.9-2.86,7.37s-1.88,5-2.88,7.24a11.07,11.07,0,0,1-3.95,5.17A19.09,19.09,0,0,1,358.11,297.67ZM351.3,290a7.52,7.52,0,0,0,1.52-2.56c.43-1,.93-2.09,1.3-3.1,2.21-6.09,4.57-11.81,6.73-17.71.2-.53.49-1,.65-1.55.42-1.31.15-2.41-1.08-2.74s-2.47.09-3.47-.06c-3.6,9.71-7.47,19.32-11,28.93C347.76,291.21,350,291.3,351.3,290Z"/>
          </g>
          <g id="Starship">
            <path id="P-2" data-name="P" class="cls-7" d="M466.31,164.24c-2.86,7.46-5.73,14.91-8.57,22.41-5.24,0-10.45.11-15.68.16q18.09-47.3,36.2-94.53a1.55,1.55,0,0,1,.8-.08L497.83,92a28.21,28.21,0,0,1,5.07.24c.59.1,1.18.31,1.82.39a6.29,6.29,0,0,1,1.55.65c5.13,2.47,5.18,7.56,3.14,13.55-.35,1-.82,2.08-1.19,3.14s-.75,2.18-1.15,3.22c-4,10.36-8.07,21-12.08,31.33-.83,2.14-1.56,4.29-2.35,6.36a23.39,23.39,0,0,1-6.31,9.51,17.26,17.26,0,0,1-9.18,3.68C473.69,164.42,470,164.1,466.31,164.24Zm10.76-16a11.85,11.85,0,0,0,2.46-4.25c.7-1.74,1.41-3.6,2-5.23,3.28-8.83,6.59-17.4,10-26.19.82-2.13,2.24-4.88-.07-5.53-1.12-.31-2.32.1-3.24,0-2.75,7-5.37,14.1-8.09,21.15s-5.45,14.08-8,21.11C473.66,149.24,475.78,149.37,477.07,148.26Z"/>
            <path id="I" class="cls-7" d="M471.44,92.33c-11.95,31.44-24.22,63-36.27,94.56-4.57,0-9.21,0-13.83,0a11.72,11.72,0,0,1-1.88-.05q18.18-47.17,36.3-94.5C461,92.27,466.22,92.33,471.44,92.33Z"/>
            <path id="S_" class="cls-7" d="M47.65,195.69l.13-.37a6.27,6.27,0,0,0,.94,0c10.83,0,21.53,0,32.22.08s21.38,0,32.23,0c10.54.05,21.21.11,32.22.08,5.23,0,10.7,0,16.1,0,2.77,0,5.52.16,8.08.09a9.69,9.69,0,0,0,6.59-3c1.76-1.88,2.88-4.9,4.16-7.87s2.58-6,3.74-8.73c1.23-2.91,2.32-5.77,3.7-8.79a20.7,20.7,0,0,0,1.36-4.51c.32-1.65.32-3-.69-3.73-1.17-.87-2.87-.81-4.15-.82-9.48,0-19.07,0-28.25-.09-5.32,0-10.68.12-16.14-.05a18.28,18.28,0,0,1-8.66-2.36,10.1,10.1,0,0,1-4.52-5.85c-1.25-4.66,0-10.84,2.18-17.19,1.07-3.14,2.35-6.1,3.6-9,3.75-8.71,7.57-17.69,11.2-26.3a89.56,89.56,0,0,1,8.41-15.66c6.29-9.17,13.78-15.46,24.05-16.6a67.14,67.14,0,0,1,7.94-.2c24.26.2,48.46,0,72.58.21q4,0,8,0c13.48-.08,26.89,0,40.33.06q32.26.14,64.51.12c.16.17-.06.51-.13.72-1,3-2.1,6.18-3.17,9.34-1,2.92-1.94,6-3,8.75,0,.13,0,.43-.27.44-16.12-.06-32.36,0-48.43-.1-8,0-16-.14-24.05-.08-2.67,0-5.32,0-8,0-16-.07-32.14,0-48.12-.11-10.47,0-21.39-.1-32-.08-4,0-8.07,0-12,0a17.73,17.73,0,0,0-3.92.21,8.86,8.86,0,0,0-5.78,4.48,35.18,35.18,0,0,0-2,4.18c-1.88,4.5-3.6,8.57-5.54,13.15-1.12,2.65-2.9,6.75-1.95,8.68.52,1,2.45,1.56,3.78,1.58s2.82,0,4,0c13.48,0,26.71.1,40.11,0a19.06,19.06,0,0,1,8.57,1.74,10.28,10.28,0,0,1,5.41,5.33c2.19,5.46.19,13.48-2.85,21.22-.59,1.51-1.21,3-1.81,4.47-3.61,8.85-7.39,17.69-11.1,26.34-2.62,6.1-4.9,11.91-7.65,16.92-4.1,7.46-9.38,13.89-15.31,17.68a29,29,0,0,1-13.75,4.61c-2.54.18-5.22.07-8,.06-43-.18-86.34-.11-129.35-.31Q45.55,205.05,47.65,195.69Z"/>
            <path id="H-2" data-name="H" class="cls-7" d="M448.49,92.14s0,0,0,.08q-18.11,47.25-36.2,94.53c-5.26-.11-10.64,0-15.76-.1Q405.28,164,414,141.36c-1.88-.08-3.69,0-5.54-.05Q399.76,164,391,186.7c-3.91,0-7.85-.07-11.82,0-1.29,0-2.56,0-3.82-.06Q393.49,139.28,411.66,92c5.25.07,10.44,0,15.66.06-4.67,12.15-9.33,24.34-14.05,36.4,1.88.07,3.7,0,5.55.05,3.34-8.8,7.07-18.18,10.53-27.3.79-2.08,1.72-4.45,2.61-6.8a10.31,10.31,0,0,1,.88-2.24c.24-.22,1.29-.07,1.92-.06C439.2,92.18,444.17,92.09,448.49,92.14Z"/>
            <path id="S-2" data-name="S" class="cls-7" d="M393.47,123.24c-5.65,0-11.36-.17-17-.23,2.32-6.14,4.5-12,6.83-18.15a3.49,3.49,0,0,0-3.95-.75,2.82,2.82,0,0,0-1,.72,10.16,10.16,0,0,0-.69,1.83c-3.28,8.94-7,18.35-10.23,27.46a7.5,7.5,0,0,0,4,.7l3.83.06c2.56.07,5.13,0,8,1,3.16,1.07,4,3,3.37,5.93a35.73,35.73,0,0,1-1.45,4.25c-2.55,7.26-5.47,14.29-8.17,21.77-.55,1.49-1.06,3-1.63,4.41s-1.05,2.92-1.64,4.3a15.85,15.85,0,0,1-4.59,6c-3.6,2.93-8,4.31-12.69,5a47.92,47.92,0,0,1-7.39.32,28.08,28.08,0,0,1-8.12-1.17c-3.27-1-5.29-2.59-6.28-4.5a5.72,5.72,0,0,1-.58-3.51,22.37,22.37,0,0,1,1.36-4.33c2-5.77,4.44-11.47,6.52-17.42q8.34,0,16.77.26c-2.19,5.75-4.35,11.69-6.63,17.57-.38,1-.63,2.16-.3,2.44a4,4,0,0,0,2.28.42,3.36,3.36,0,0,0,2-.5c.76-.73,1.24-2.34,1.7-3.62s1.08-2.84,1.55-4c1.08-2.74,1.9-5.32,3-8.2,1.5-3.84,3-8.07,4.61-12.16.59-1.49,1.18-3.34.66-3.85s-1.8-.5-2.65-.55c-2.58-.15-5.22,0-7.74-.21-3.7-.26-8.28-1.38-8.81-4.71a10.15,10.15,0,0,1,1-4.69c1.9-4.88,3.82-9.92,5.54-14.74,1.18-3.29,2.57-6.56,3.72-9.86,1.21-3.5,2.4-6.81,4-9.17,3.16-4.64,8.12-7,13.07-8.15a37.63,37.63,0,0,1,8.16-.83,32.86,32.86,0,0,1,9.15.92c3.36.93,5.7,2.5,6.9,4.42,1.29,2.08,1.32,4.47.23,7.65C398.18,111.13,395.57,117.14,393.47,123.24Z"/>
            <path id="R-3" data-name="R" class="cls-7" d="M336.1,139.86c2.23,1.27,4.2,2.93,4.15,5.38,0,1.47-.84,3-1.34,4.45-.13.38-.15.79-.28,1.15-.38,1.11-.9,2.26-1.35,3.45-4,10.48-8.38,21.72-12.33,32.07-3.92.06-7.93,0-11.94,0a39,39,0,0,1-3.9,0c4.43-11.27,9-23.71,13.55-35.27.54-1.38,1.69-3.43.63-4.28s-3.24-.33-4.25-.56c-5.12,13.42-10.3,26.74-15.44,40.13-5.17,0-10.57,0-15.65-.06q18.12-47.34,36.32-94.55c6.66.11,13.51,0,20.28,0a27,27,0,0,1,7.31.77c5.13,1.48,6.58,5.7,4.93,10.55s-3.74,10.16-5.58,14.84c-1.92,4.87-3.82,10.23-5.77,14.67a11,11,0,0,1-3.91,5.23A17.19,17.19,0,0,1,336.1,139.86Zm-7.36-7.24a5.92,5.92,0,0,0,2.13-2.94c1.21-3,2.58-6.59,3.72-9.56,1.54-4,2.88-7.52,4.27-11.33.2-.53.5-1,.65-1.55.4-1.36.1-2.38-1.22-2.67-1.08-.23-2.3.11-3.3,0-3.65,9.68-7.34,19.27-11,28.91A8.19,8.19,0,0,0,328.74,132.62Z"/>
            <path id="T-2" data-name="T" class="cls-7" d="M285.53,92.18c-1.8,4.26-3.61,8.52-5.38,12.84-4.4.08-8.9,0-13.32,0q-15.63,40.89-31.33,81.64c-5.23,0-10.41,0-15.66-.07q15.63-40.83,31.32-81.58c-4.89-.12-10,0-15.06-.09,1.79-4.33,3.61-8.58,5.4-12.9,14.61,0,29.26.07,43.87.08C285.46,92.17,285.54,92.08,285.53,92.18Z"/>
            <path id="A" class="cls-7" d="M311.21,92.16c.06,0,0,.07,0,.06-9.14,31.44-18.51,63-27.65,94.42a7.14,7.14,0,0,1-2,0c-4.48,0-9.22.08-13.78,0,2.23-6.56,4.55-13.4,6.73-19.78-1.82-.14-3.89,0-5.83-.09-2.9,6.66-5.85,13.23-8.77,19.85-4.9,0-9.79,0-14.72,0Q267.61,139.38,290,92.1C297,92.09,304.28,92.07,311.21,92.16Zm-22.9,30.61c-.69,1.76-1.54,3.44-2.3,5.19-3.79,8.74-7.72,17.41-11.53,26.07,1.48,0,2.95,0,4.42,0,2.35-6.95,4.71-14,7.1-21s4.63-14,6.91-20.66C291.45,115.87,289.71,119.23,288.31,122.77Z"/>
          </g>
        </g>
      </g>
    </g>
  </g>
</svg>
